<?xml version="1.0" encoding="utf-8" standalone="no"?>
<!DOCTYPE svg PUBLIC "-//W3C//DTD SVG 1.1//EN"
  "http://www.w3.org/Graphics/SVG/1.1/DTD/svg11.dtd">
<svg xmlns:xlink="http://www.w3.org/1999/xlink" width="345.6pt" height="259.2pt" viewBox="0 0 345.6 259.2" xmlns="http://www.w3.org/2000/svg" version="1.1">
 <metadata>
  <rdf:RDF xmlns:dc="http://purl.org/dc/elements/1.1/" xmlns:cc="http://creativecommons.org/ns#" xmlns:rdf="http://www.w3.org/1999/02/22-rdf-syntax-ns#">
   <cc:Work>
    <dc:type rdf:resource="http://purl.org/dc/dcmitype/StillImage"/>
    <dc:date>2024-06-22T15:28:19.629530</dc:date>
    <dc:format>image/svg+xml</dc:format>
    <dc:creator>
     <cc:Agent>
      <dc:title>Matplotlib v3.7.2, https://matplotlib.org/</dc:title>
     </cc:Agent>
    </dc:creator>
   </cc:Work>
  </rdf:RDF>
 </metadata>
 <defs>
  <style type="text/css">*{stroke-linejoin: round; stroke-linecap: butt}</style>
 </defs>
 <g id="figure_1">
  <g id="patch_1">
   <path d="M 0 259.2 
L 345.6 259.2 
L 345.6 0 
L 0 0 
z
" style="fill: #202020"/>
  </g>
  <g id="axes_1">
   <g id="patch_2">
    <path d="M 56.509271 241.137882 
L 342.59976 241.137882 
L 342.59976 3.00024 
L 56.509271 3.00024 
z
" style="fill: #303030"/>
   </g>
   <g id="patch_3">
    <path d="M 69.513384 241.137882 
L 98.411414 241.137882 
L 98.411414 119.827455 
L 69.513384 119.827455 
z
" clip-path="url(#p4878c9e9a3)" style="fill: #1f77b4; stroke: #303030; stroke-linejoin: miter"/>
   </g>
   <g id="patch_4">
    <path d="M 98.411414 241.137882 
L 127.309443 241.137882 
L 127.309443 156.74802 
L 98.411414 156.74802 
z
" clip-path="url(#p4878c9e9a3)" style="fill: #1f77b4; stroke: #303030; stroke-linejoin: miter"/>
   </g>
   <g id="patch_5">
    <path d="M 127.309443 241.137882 
L 156.207472 241.137882 
L 156.207472 72.358158 
L 127.309443 72.358158 
z
" clip-path="url(#p4878c9e9a3)" style="fill: #1f77b4; stroke: #303030; stroke-linejoin: miter"/>
   </g>
   <g id="patch_6">
    <path d="M 156.207472 241.137882 
L 185.105501 241.137882 
L 185.105501 151.473653 
L 156.207472 151.473653 
z
" clip-path="url(#p4878c9e9a3)" style="fill: #1f77b4; stroke: #303030; stroke-linejoin: miter"/>
   </g>
   <g id="patch_7">
    <path d="M 185.105501 241.137882 
L 214.00353 241.137882 
L 214.00353 14.340128 
L 185.105501 14.340128 
z
" clip-path="url(#p4878c9e9a3)" style="fill: #1f77b4; stroke: #303030; stroke-linejoin: miter"/>
   </g>
   <g id="patch_8">
    <path d="M 214.00353 241.137882 
L 242.901559 241.137882 
L 242.901559 104.004356 
L 214.00353 104.004356 
z
" clip-path="url(#p4878c9e9a3)" style="fill: #1f77b4; stroke: #303030; stroke-linejoin: miter"/>
   </g>
   <g id="patch_9">
    <path d="M 242.901559 241.137882 
L 271.799589 241.137882 
L 271.799589 198.942951 
L 242.901559 198.942951 
z
" clip-path="url(#p4878c9e9a3)" style="fill: #1f77b4; stroke: #303030; stroke-linejoin: miter"/>
   </g>
   <g id="patch_10">
    <path d="M 271.799589 241.137882 
L 300.697618 241.137882 
L 300.697618 146.199287 
L 271.799589 146.199287 
z
" clip-path="url(#p4878c9e9a3)" style="fill: #1f77b4; stroke: #303030; stroke-linejoin: miter"/>
   </g>
   <g id="patch_11">
    <path d="M 300.697618 241.137882 
L 329.595647 241.137882 
L 329.595647 167.296753 
L 300.697618 167.296753 
z
" clip-path="url(#p4878c9e9a3)" style="fill: #1f77b4; stroke: #303030; stroke-linejoin: miter"/>
   </g>
   <g id="matplotlib.axis_1">
    <g id="xtick_1">
     <g id="line2d_1">
      <defs>
       <path id="m5ab0cccd32" d="M 0 0 
L 0 3.5 
" style="stroke: #666666; stroke-width: 0.8"/>
      </defs>
      <g>
       <use xlink:href="#m5ab0cccd32" x="73.337496" y="241.137882" style="fill: #666666; stroke: #666666; stroke-width: 0.8"/>
      </g>
     </g>
     <g id="text_1">
      <!-- 3000 -->
      <g style="fill: #666666" transform="translate(62.737571 254.46738) scale(0.0833 -0.0833)">
       <defs>
        <path id="DejaVuSans-33" d="M 2597 2516 
Q 3050 2419 3304 2112 
Q 3559 1806 3559 1356 
Q 3559 666 3084 287 
Q 2609 -91 1734 -91 
Q 1441 -91 1130 -33 
Q 819 25 488 141 
L 488 750 
Q 750 597 1062 519 
Q 1375 441 1716 441 
Q 2309 441 2620 675 
Q 2931 909 2931 1356 
Q 2931 1769 2642 2001 
Q 2353 2234 1838 2234 
L 1294 2234 
L 1294 2753 
L 1863 2753 
Q 2328 2753 2575 2939 
Q 2822 3125 2822 3475 
Q 2822 3834 2567 4026 
Q 2313 4219 1838 4219 
Q 1578 4219 1281 4162 
Q 984 4106 628 3988 
L 628 4550 
Q 988 4650 1302 4700 
Q 1616 4750 1894 4750 
Q 2613 4750 3031 4423 
Q 3450 4097 3450 3541 
Q 3450 3153 3228 2886 
Q 3006 2619 2597 2516 
z
" transform="scale(0.015625)"/>
        <path id="DejaVuSans-30" d="M 2034 4250 
Q 1547 4250 1301 3770 
Q 1056 3291 1056 2328 
Q 1056 1369 1301 889 
Q 1547 409 2034 409 
Q 2525 409 2770 889 
Q 3016 1369 3016 2328 
Q 3016 3291 2770 3770 
Q 2525 4250 2034 4250 
z
M 2034 4750 
Q 2819 4750 3233 4129 
Q 3647 3509 3647 2328 
Q 3647 1150 3233 529 
Q 2819 -91 2034 -91 
Q 1250 -91 836 529 
Q 422 1150 422 2328 
Q 422 3509 836 4129 
Q 1250 4750 2034 4750 
z
" transform="scale(0.015625)"/>
       </defs>
       <use xlink:href="#DejaVuSans-33"/>
       <use xlink:href="#DejaVuSans-30" x="63.623047"/>
       <use xlink:href="#DejaVuSans-30" x="127.246094"/>
       <use xlink:href="#DejaVuSans-30" x="190.869141"/>
      </g>
     </g>
    </g>
    <g id="xtick_2">
     <g id="line2d_2">
      <g>
       <use xlink:href="#m5ab0cccd32" x="121.470129" y="241.137882" style="fill: #666666; stroke: #666666; stroke-width: 0.8"/>
      </g>
     </g>
     <g id="text_2">
      <!-- 3200 -->
      <g style="fill: #666666" transform="translate(110.870204 254.46738) scale(0.0833 -0.0833)">
       <defs>
        <path id="DejaVuSans-32" d="M 1228 531 
L 3431 531 
L 3431 0 
L 469 0 
L 469 531 
Q 828 903 1448 1529 
Q 2069 2156 2228 2338 
Q 2531 2678 2651 2914 
Q 2772 3150 2772 3378 
Q 2772 3750 2511 3984 
Q 2250 4219 1831 4219 
Q 1534 4219 1204 4116 
Q 875 4013 500 3803 
L 500 4441 
Q 881 4594 1212 4672 
Q 1544 4750 1819 4750 
Q 2544 4750 2975 4387 
Q 3406 4025 3406 3419 
Q 3406 3131 3298 2873 
Q 3191 2616 2906 2266 
Q 2828 2175 2409 1742 
Q 1991 1309 1228 531 
z
" transform="scale(0.015625)"/>
       </defs>
       <use xlink:href="#DejaVuSans-33"/>
       <use xlink:href="#DejaVuSans-32" x="63.623047"/>
       <use xlink:href="#DejaVuSans-30" x="127.246094"/>
       <use xlink:href="#DejaVuSans-30" x="190.869141"/>
      </g>
     </g>
    </g>
    <g id="xtick_3">
     <g id="line2d_3">
      <g>
       <use xlink:href="#m5ab0cccd32" x="169.602763" y="241.137882" style="fill: #666666; stroke: #666666; stroke-width: 0.8"/>
      </g>
     </g>
     <g id="text_3">
      <!-- 3400 -->
      <g style="fill: #666666" transform="translate(159.002838 254.46738) scale(0.0833 -0.0833)">
       <defs>
        <path id="DejaVuSans-34" d="M 2419 4116 
L 825 1625 
L 2419 1625 
L 2419 4116 
z
M 2253 4666 
L 3047 4666 
L 3047 1625 
L 3713 1625 
L 3713 1100 
L 3047 1100 
L 3047 0 
L 2419 0 
L 2419 1100 
L 313 1100 
L 313 1709 
L 2253 4666 
z
" transform="scale(0.015625)"/>
       </defs>
       <use xlink:href="#DejaVuSans-33"/>
       <use xlink:href="#DejaVuSans-34" x="63.623047"/>
       <use xlink:href="#DejaVuSans-30" x="127.246094"/>
       <use xlink:href="#DejaVuSans-30" x="190.869141"/>
      </g>
     </g>
    </g>
    <g id="xtick_4">
     <g id="line2d_4">
      <g>
       <use xlink:href="#m5ab0cccd32" x="217.735396" y="241.137882" style="fill: #666666; stroke: #666666; stroke-width: 0.8"/>
      </g>
     </g>
     <g id="text_4">
      <!-- 3600 -->
      <g style="fill: #666666" transform="translate(207.135471 254.46738) scale(0.0833 -0.0833)">
       <defs>
        <path id="DejaVuSans-36" d="M 2113 2584 
Q 1688 2584 1439 2293 
Q 1191 2003 1191 1497 
Q 1191 994 1439 701 
Q 1688 409 2113 409 
Q 2538 409 2786 701 
Q 3034 994 3034 1497 
Q 3034 2003 2786 2293 
Q 2538 2584 2113 2584 
z
M 3366 4563 
L 3366 3988 
Q 3128 4100 2886 4159 
Q 2644 4219 2406 4219 
Q 1781 4219 1451 3797 
Q 1122 3375 1075 2522 
Q 1259 2794 1537 2939 
Q 1816 3084 2150 3084 
Q 2853 3084 3261 2657 
Q 3669 2231 3669 1497 
Q 3669 778 3244 343 
Q 2819 -91 2113 -91 
Q 1303 -91 875 529 
Q 447 1150 447 2328 
Q 447 3434 972 4092 
Q 1497 4750 2381 4750 
Q 2619 4750 2861 4703 
Q 3103 4656 3366 4563 
z
" transform="scale(0.015625)"/>
       </defs>
       <use xlink:href="#DejaVuSans-33"/>
       <use xlink:href="#DejaVuSans-36" x="63.623047"/>
       <use xlink:href="#DejaVuSans-30" x="127.246094"/>
       <use xlink:href="#DejaVuSans-30" x="190.869141"/>
      </g>
     </g>
    </g>
    <g id="xtick_5">
     <g id="line2d_5">
      <g>
       <use xlink:href="#m5ab0cccd32" x="265.868029" y="241.137882" style="fill: #666666; stroke: #666666; stroke-width: 0.8"/>
      </g>
     </g>
     <g id="text_5">
      <!-- 3800 -->
      <g style="fill: #666666" transform="translate(255.268104 254.46738) scale(0.0833 -0.0833)">
       <defs>
        <path id="DejaVuSans-38" d="M 2034 2216 
Q 1584 2216 1326 1975 
Q 1069 1734 1069 1313 
Q 1069 891 1326 650 
Q 1584 409 2034 409 
Q 2484 409 2743 651 
Q 3003 894 3003 1313 
Q 3003 1734 2745 1975 
Q 2488 2216 2034 2216 
z
M 1403 2484 
Q 997 2584 770 2862 
Q 544 3141 544 3541 
Q 544 4100 942 4425 
Q 1341 4750 2034 4750 
Q 2731 4750 3128 4425 
Q 3525 4100 3525 3541 
Q 3525 3141 3298 2862 
Q 3072 2584 2669 2484 
Q 3125 2378 3379 2068 
Q 3634 1759 3634 1313 
Q 3634 634 3220 271 
Q 2806 -91 2034 -91 
Q 1263 -91 848 271 
Q 434 634 434 1313 
Q 434 1759 690 2068 
Q 947 2378 1403 2484 
z
M 1172 3481 
Q 1172 3119 1398 2916 
Q 1625 2713 2034 2713 
Q 2441 2713 2670 2916 
Q 2900 3119 2900 3481 
Q 2900 3844 2670 4047 
Q 2441 4250 2034 4250 
Q 1625 4250 1398 4047 
Q 1172 3844 1172 3481 
z
" transform="scale(0.015625)"/>
       </defs>
       <use xlink:href="#DejaVuSans-33"/>
       <use xlink:href="#DejaVuSans-38" x="63.623047"/>
       <use xlink:href="#DejaVuSans-30" x="127.246094"/>
       <use xlink:href="#DejaVuSans-30" x="190.869141"/>
      </g>
     </g>
    </g>
    <g id="xtick_6">
     <g id="line2d_6">
      <g>
       <use xlink:href="#m5ab0cccd32" x="314.000662" y="241.137882" style="fill: #666666; stroke: #666666; stroke-width: 0.8"/>
      </g>
     </g>
     <g id="text_6">
      <!-- 4000 -->
      <g style="fill: #666666" transform="translate(303.400737 254.46738) scale(0.0833 -0.0833)">
       <use xlink:href="#DejaVuSans-34"/>
       <use xlink:href="#DejaVuSans-30" x="63.623047"/>
       <use xlink:href="#DejaVuSans-30" x="127.246094"/>
       <use xlink:href="#DejaVuSans-30" x="190.869141"/>
      </g>
     </g>
    </g>
   </g>
   <g id="matplotlib.axis_2">
    <g id="ytick_1">
     <g id="line2d_7">
      <defs>
       <path id="mc97eaa2d0b" d="M 0 0 
L -3.5 0 
" style="stroke: #666666; stroke-width: 0.8"/>
      </defs>
      <g>
       <use xlink:href="#mc97eaa2d0b" x="56.509271" y="241.137882" style="fill: #666666; stroke: #666666; stroke-width: 0.8"/>
      </g>
     </g>
     <g id="text_7">
      <!-- 0.00000 -->
      <g style="fill: #666666" transform="translate(15.062118 244.302631) scale(0.0833 -0.0833)">
       <defs>
        <path id="DejaVuSans-2e" d="M 684 794 
L 1344 794 
L 1344 0 
L 684 0 
L 684 794 
z
" transform="scale(0.015625)"/>
       </defs>
       <use xlink:href="#DejaVuSans-30"/>
       <use xlink:href="#DejaVuSans-2e" x="63.623047"/>
       <use xlink:href="#DejaVuSans-30" x="95.410156"/>
       <use xlink:href="#DejaVuSans-30" x="159.033203"/>
       <use xlink:href="#DejaVuSans-30" x="222.65625"/>
       <use xlink:href="#DejaVuSans-30" x="286.279297"/>
       <use xlink:href="#DejaVuSans-30" x="349.902344"/>
      </g>
     </g>
    </g>
    <g id="ytick_2">
     <g id="line2d_8">
      <g>
       <use xlink:href="#mc97eaa2d0b" x="56.509271" y="209.946463" style="fill: #666666; stroke: #666666; stroke-width: 0.8"/>
      </g>
     </g>
     <g id="text_8">
      <!-- 0.00025 -->
      <g style="fill: #666666" transform="translate(15.062118 213.111212) scale(0.0833 -0.0833)">
       <defs>
        <path id="DejaVuSans-35" d="M 691 4666 
L 3169 4666 
L 3169 4134 
L 1269 4134 
L 1269 2991 
Q 1406 3038 1543 3061 
Q 1681 3084 1819 3084 
Q 2600 3084 3056 2656 
Q 3513 2228 3513 1497 
Q 3513 744 3044 326 
Q 2575 -91 1722 -91 
Q 1428 -91 1123 -41 
Q 819 9 494 109 
L 494 744 
Q 775 591 1075 516 
Q 1375 441 1709 441 
Q 2250 441 2565 725 
Q 2881 1009 2881 1497 
Q 2881 1984 2565 2268 
Q 2250 2553 1709 2553 
Q 1456 2553 1204 2497 
Q 953 2441 691 2322 
L 691 4666 
z
" transform="scale(0.015625)"/>
       </defs>
       <use xlink:href="#DejaVuSans-30"/>
       <use xlink:href="#DejaVuSans-2e" x="63.623047"/>
       <use xlink:href="#DejaVuSans-30" x="95.410156"/>
       <use xlink:href="#DejaVuSans-30" x="159.033203"/>
       <use xlink:href="#DejaVuSans-30" x="222.65625"/>
       <use xlink:href="#DejaVuSans-32" x="286.279297"/>
       <use xlink:href="#DejaVuSans-35" x="349.902344"/>
      </g>
     </g>
    </g>
    <g id="ytick_3">
     <g id="line2d_9">
      <g>
       <use xlink:href="#mc97eaa2d0b" x="56.509271" y="178.755044" style="fill: #666666; stroke: #666666; stroke-width: 0.8"/>
      </g>
     </g>
     <g id="text_9">
      <!-- 0.00050 -->
      <g style="fill: #666666" transform="translate(15.062118 181.919794) scale(0.0833 -0.0833)">
       <use xlink:href="#DejaVuSans-30"/>
       <use xlink:href="#DejaVuSans-2e" x="63.623047"/>
       <use xlink:href="#DejaVuSans-30" x="95.410156"/>
       <use xlink:href="#DejaVuSans-30" x="159.033203"/>
       <use xlink:href="#DejaVuSans-30" x="222.65625"/>
       <use xlink:href="#DejaVuSans-35" x="286.279297"/>
       <use xlink:href="#DejaVuSans-30" x="349.902344"/>
      </g>
     </g>
    </g>
    <g id="ytick_4">
     <g id="line2d_10">
      <g>
       <use xlink:href="#mc97eaa2d0b" x="56.509271" y="147.563626" style="fill: #666666; stroke: #666666; stroke-width: 0.8"/>
      </g>
     </g>
     <g id="text_10">
      <!-- 0.00075 -->
      <g style="fill: #666666" transform="translate(15.062118 150.728375) scale(0.0833 -0.0833)">
       <defs>
        <path id="DejaVuSans-37" d="M 525 4666 
L 3525 4666 
L 3525 4397 
L 1831 0 
L 1172 0 
L 2766 4134 
L 525 4134 
L 525 4666 
z
" transform="scale(0.015625)"/>
       </defs>
       <use xlink:href="#DejaVuSans-30"/>
       <use xlink:href="#DejaVuSans-2e" x="63.623047"/>
       <use xlink:href="#DejaVuSans-30" x="95.410156"/>
       <use xlink:href="#DejaVuSans-30" x="159.033203"/>
       <use xlink:href="#DejaVuSans-30" x="222.65625"/>
       <use xlink:href="#DejaVuSans-37" x="286.279297"/>
       <use xlink:href="#DejaVuSans-35" x="349.902344"/>
      </g>
     </g>
    </g>
    <g id="ytick_5">
     <g id="line2d_11">
      <g>
       <use xlink:href="#mc97eaa2d0b" x="56.509271" y="116.372207" style="fill: #666666; stroke: #666666; stroke-width: 0.8"/>
      </g>
     </g>
     <g id="text_11">
      <!-- 0.00100 -->
      <g style="fill: #666666" transform="translate(15.062118 119.536956) scale(0.0833 -0.0833)">
       <defs>
        <path id="DejaVuSans-31" d="M 794 531 
L 1825 531 
L 1825 4091 
L 703 3866 
L 703 4441 
L 1819 4666 
L 2450 4666 
L 2450 531 
L 3481 531 
L 3481 0 
L 794 0 
L 794 531 
z
" transform="scale(0.015625)"/>
       </defs>
       <use xlink:href="#DejaVuSans-30"/>
       <use xlink:href="#DejaVuSans-2e" x="63.623047"/>
       <use xlink:href="#DejaVuSans-30" x="95.410156"/>
       <use xlink:href="#DejaVuSans-30" x="159.033203"/>
       <use xlink:href="#DejaVuSans-31" x="222.65625"/>
       <use xlink:href="#DejaVuSans-30" x="286.279297"/>
       <use xlink:href="#DejaVuSans-30" x="349.902344"/>
      </g>
     </g>
    </g>
    <g id="ytick_6">
     <g id="line2d_12">
      <g>
       <use xlink:href="#mc97eaa2d0b" x="56.509271" y="85.180788" style="fill: #666666; stroke: #666666; stroke-width: 0.8"/>
      </g>
     </g>
     <g id="text_12">
      <!-- 0.00125 -->
      <g style="fill: #666666" transform="translate(15.062118 88.345537) scale(0.0833 -0.0833)">
       <use xlink:href="#DejaVuSans-30"/>
       <use xlink:href="#DejaVuSans-2e" x="63.623047"/>
       <use xlink:href="#DejaVuSans-30" x="95.410156"/>
       <use xlink:href="#DejaVuSans-30" x="159.033203"/>
       <use xlink:href="#DejaVuSans-31" x="222.65625"/>
       <use xlink:href="#DejaVuSans-32" x="286.279297"/>
       <use xlink:href="#DejaVuSans-35" x="349.902344"/>
      </g>
     </g>
    </g>
    <g id="ytick_7">
     <g id="line2d_13">
      <g>
       <use xlink:href="#mc97eaa2d0b" x="56.509271" y="53.98937" style="fill: #666666; stroke: #666666; stroke-width: 0.8"/>
      </g>
     </g>
     <g id="text_13">
      <!-- 0.00150 -->
      <g style="fill: #666666" transform="translate(15.062118 57.154119) scale(0.0833 -0.0833)">
       <use xlink:href="#DejaVuSans-30"/>
       <use xlink:href="#DejaVuSans-2e" x="63.623047"/>
       <use xlink:href="#DejaVuSans-30" x="95.410156"/>
       <use xlink:href="#DejaVuSans-30" x="159.033203"/>
       <use xlink:href="#DejaVuSans-31" x="222.65625"/>
       <use xlink:href="#DejaVuSans-35" x="286.279297"/>
       <use xlink:href="#DejaVuSans-30" x="349.902344"/>
      </g>
     </g>
    </g>
    <g id="ytick_8">
     <g id="line2d_14">
      <g>
       <use xlink:href="#mc97eaa2d0b" x="56.509271" y="22.797951" style="fill: #666666; stroke: #666666; stroke-width: 0.8"/>
      </g>
     </g>
     <g id="text_14">
      <!-- 0.00175 -->
      <g style="fill: #666666" transform="translate(15.062118 25.9627) scale(0.0833 -0.0833)">
       <use xlink:href="#DejaVuSans-30"/>
       <use xlink:href="#DejaVuSans-2e" x="63.623047"/>
       <use xlink:href="#DejaVuSans-30" x="95.410156"/>
       <use xlink:href="#DejaVuSans-30" x="159.033203"/>
       <use xlink:href="#DejaVuSans-31" x="222.65625"/>
       <use xlink:href="#DejaVuSans-37" x="286.279297"/>
       <use xlink:href="#DejaVuSans-35" x="349.902344"/>
      </g>
     </g>
    </g>
    <g id="text_15">
     <!-- probability density -->
     <g style="fill: #666666" transform="translate(9.329738 160.884909) rotate(-90) scale(0.0833 -0.0833)">
      <defs>
       <path id="DejaVuSans-70" d="M 1159 525 
L 1159 -1331 
L 581 -1331 
L 581 3500 
L 1159 3500 
L 1159 2969 
Q 1341 3281 1617 3432 
Q 1894 3584 2278 3584 
Q 2916 3584 3314 3078 
Q 3713 2572 3713 1747 
Q 3713 922 3314 415 
Q 2916 -91 2278 -91 
Q 1894 -91 1617 61 
Q 1341 213 1159 525 
z
M 3116 1747 
Q 3116 2381 2855 2742 
Q 2594 3103 2138 3103 
Q 1681 3103 1420 2742 
Q 1159 2381 1159 1747 
Q 1159 1113 1420 752 
Q 1681 391 2138 391 
Q 2594 391 2855 752 
Q 3116 1113 3116 1747 
z
" transform="scale(0.015625)"/>
       <path id="DejaVuSans-72" d="M 2631 2963 
Q 2534 3019 2420 3045 
Q 2306 3072 2169 3072 
Q 1681 3072 1420 2755 
Q 1159 2438 1159 1844 
L 1159 0 
L 581 0 
L 581 3500 
L 1159 3500 
L 1159 2956 
Q 1341 3275 1631 3429 
Q 1922 3584 2338 3584 
Q 2397 3584 2469 3576 
Q 2541 3569 2628 3553 
L 2631 2963 
z
" transform="scale(0.015625)"/>
       <path id="DejaVuSans-6f" d="M 1959 3097 
Q 1497 3097 1228 2736 
Q 959 2375 959 1747 
Q 959 1119 1226 758 
Q 1494 397 1959 397 
Q 2419 397 2687 759 
Q 2956 1122 2956 1747 
Q 2956 2369 2687 2733 
Q 2419 3097 1959 3097 
z
M 1959 3584 
Q 2709 3584 3137 3096 
Q 3566 2609 3566 1747 
Q 3566 888 3137 398 
Q 2709 -91 1959 -91 
Q 1206 -91 779 398 
Q 353 888 353 1747 
Q 353 2609 779 3096 
Q 1206 3584 1959 3584 
z
" transform="scale(0.015625)"/>
       <path id="DejaVuSans-62" d="M 3116 1747 
Q 3116 2381 2855 2742 
Q 2594 3103 2138 3103 
Q 1681 3103 1420 2742 
Q 1159 2381 1159 1747 
Q 1159 1113 1420 752 
Q 1681 391 2138 391 
Q 2594 391 2855 752 
Q 3116 1113 3116 1747 
z
M 1159 2969 
Q 1341 3281 1617 3432 
Q 1894 3584 2278 3584 
Q 2916 3584 3314 3078 
Q 3713 2572 3713 1747 
Q 3713 922 3314 415 
Q 2916 -91 2278 -91 
Q 1894 -91 1617 61 
Q 1341 213 1159 525 
L 1159 0 
L 581 0 
L 581 4863 
L 1159 4863 
L 1159 2969 
z
" transform="scale(0.015625)"/>
       <path id="DejaVuSans-61" d="M 2194 1759 
Q 1497 1759 1228 1600 
Q 959 1441 959 1056 
Q 959 750 1161 570 
Q 1363 391 1709 391 
Q 2188 391 2477 730 
Q 2766 1069 2766 1631 
L 2766 1759 
L 2194 1759 
z
M 3341 1997 
L 3341 0 
L 2766 0 
L 2766 531 
Q 2569 213 2275 61 
Q 1981 -91 1556 -91 
Q 1019 -91 701 211 
Q 384 513 384 1019 
Q 384 1609 779 1909 
Q 1175 2209 1959 2209 
L 2766 2209 
L 2766 2266 
Q 2766 2663 2505 2880 
Q 2244 3097 1772 3097 
Q 1472 3097 1187 3025 
Q 903 2953 641 2809 
L 641 3341 
Q 956 3463 1253 3523 
Q 1550 3584 1831 3584 
Q 2591 3584 2966 3190 
Q 3341 2797 3341 1997 
z
" transform="scale(0.015625)"/>
       <path id="DejaVuSans-69" d="M 603 3500 
L 1178 3500 
L 1178 0 
L 603 0 
L 603 3500 
z
M 603 4863 
L 1178 4863 
L 1178 4134 
L 603 4134 
L 603 4863 
z
" transform="scale(0.015625)"/>
       <path id="DejaVuSans-6c" d="M 603 4863 
L 1178 4863 
L 1178 0 
L 603 0 
L 603 4863 
z
" transform="scale(0.015625)"/>
       <path id="DejaVuSans-74" d="M 1172 4494 
L 1172 3500 
L 2356 3500 
L 2356 3053 
L 1172 3053 
L 1172 1153 
Q 1172 725 1289 603 
Q 1406 481 1766 481 
L 2356 481 
L 2356 0 
L 1766 0 
Q 1100 0 847 248 
Q 594 497 594 1153 
L 594 3053 
L 172 3053 
L 172 3500 
L 594 3500 
L 594 4494 
L 1172 4494 
z
" transform="scale(0.015625)"/>
       <path id="DejaVuSans-79" d="M 2059 -325 
Q 1816 -950 1584 -1140 
Q 1353 -1331 966 -1331 
L 506 -1331 
L 506 -850 
L 844 -850 
Q 1081 -850 1212 -737 
Q 1344 -625 1503 -206 
L 1606 56 
L 191 3500 
L 800 3500 
L 1894 763 
L 2988 3500 
L 3597 3500 
L 2059 -325 
z
" transform="scale(0.015625)"/>
       <path id="DejaVuSans-20" transform="scale(0.015625)"/>
       <path id="DejaVuSans-64" d="M 2906 2969 
L 2906 4863 
L 3481 4863 
L 3481 0 
L 2906 0 
L 2906 525 
Q 2725 213 2448 61 
Q 2172 -91 1784 -91 
Q 1150 -91 751 415 
Q 353 922 353 1747 
Q 353 2572 751 3078 
Q 1150 3584 1784 3584 
Q 2172 3584 2448 3432 
Q 2725 3281 2906 2969 
z
M 947 1747 
Q 947 1113 1208 752 
Q 1469 391 1925 391 
Q 2381 391 2643 752 
Q 2906 1113 2906 1747 
Q 2906 2381 2643 2742 
Q 2381 3103 1925 3103 
Q 1469 3103 1208 2742 
Q 947 2381 947 1747 
z
" transform="scale(0.015625)"/>
       <path id="DejaVuSans-65" d="M 3597 1894 
L 3597 1613 
L 953 1613 
Q 991 1019 1311 708 
Q 1631 397 2203 397 
Q 2534 397 2845 478 
Q 3156 559 3463 722 
L 3463 178 
Q 3153 47 2828 -22 
Q 2503 -91 2169 -91 
Q 1331 -91 842 396 
Q 353 884 353 1716 
Q 353 2575 817 3079 
Q 1281 3584 2069 3584 
Q 2775 3584 3186 3129 
Q 3597 2675 3597 1894 
z
M 3022 2063 
Q 3016 2534 2758 2815 
Q 2500 3097 2075 3097 
Q 1594 3097 1305 2825 
Q 1016 2553 972 2059 
L 3022 2063 
z
" transform="scale(0.015625)"/>
       <path id="DejaVuSans-6e" d="M 3513 2113 
L 3513 0 
L 2938 0 
L 2938 2094 
Q 2938 2591 2744 2837 
Q 2550 3084 2163 3084 
Q 1697 3084 1428 2787 
Q 1159 2491 1159 1978 
L 1159 0 
L 581 0 
L 581 3500 
L 1159 3500 
L 1159 2956 
Q 1366 3272 1645 3428 
Q 1925 3584 2291 3584 
Q 2894 3584 3203 3211 
Q 3513 2838 3513 2113 
z
" transform="scale(0.015625)"/>
       <path id="DejaVuSans-73" d="M 2834 3397 
L 2834 2853 
Q 2591 2978 2328 3040 
Q 2066 3103 1784 3103 
Q 1356 3103 1142 2972 
Q 928 2841 928 2578 
Q 928 2378 1081 2264 
Q 1234 2150 1697 2047 
L 1894 2003 
Q 2506 1872 2764 1633 
Q 3022 1394 3022 966 
Q 3022 478 2636 193 
Q 2250 -91 1575 -91 
Q 1294 -91 989 -36 
Q 684 19 347 128 
L 347 722 
Q 666 556 975 473 
Q 1284 391 1588 391 
Q 1994 391 2212 530 
Q 2431 669 2431 922 
Q 2431 1156 2273 1281 
Q 2116 1406 1581 1522 
L 1381 1569 
Q 847 1681 609 1914 
Q 372 2147 372 2553 
Q 372 3047 722 3315 
Q 1072 3584 1716 3584 
Q 2034 3584 2315 3537 
Q 2597 3491 2834 3397 
z
" transform="scale(0.015625)"/>
      </defs>
      <use xlink:href="#DejaVuSans-70"/>
      <use xlink:href="#DejaVuSans-72" x="63.476562"/>
      <use xlink:href="#DejaVuSans-6f" x="102.339844"/>
      <use xlink:href="#DejaVuSans-62" x="163.521484"/>
      <use xlink:href="#DejaVuSans-61" x="226.998047"/>
      <use xlink:href="#DejaVuSans-62" x="288.277344"/>
      <use xlink:href="#DejaVuSans-69" x="351.753906"/>
      <use xlink:href="#DejaVuSans-6c" x="379.537109"/>
      <use xlink:href="#DejaVuSans-69" x="407.320312"/>
      <use xlink:href="#DejaVuSans-74" x="435.103516"/>
      <use xlink:href="#DejaVuSans-79" x="474.3125"/>
      <use xlink:href="#DejaVuSans-20" x="533.492188"/>
      <use xlink:href="#DejaVuSans-64" x="565.279297"/>
      <use xlink:href="#DejaVuSans-65" x="628.755859"/>
      <use xlink:href="#DejaVuSans-6e" x="690.279297"/>
      <use xlink:href="#DejaVuSans-73" x="753.658203"/>
      <use xlink:href="#DejaVuSans-69" x="805.757812"/>
      <use xlink:href="#DejaVuSans-74" x="833.541016"/>
      <use xlink:href="#DejaVuSans-79" x="872.75"/>
     </g>
    </g>
   </g>
   <g id="line2d_15">
    <path d="M 69.513384 168.174674 
L 75.761607 153.113068 
L 79.666746 144.288149 
L 82.790857 137.73921 
L 85.654626 132.210944 
L 88.518395 127.174952 
L 91.121821 123.033577 
L 93.725247 119.298163 
L 96.328673 115.942158 
L 98.932099 112.924518 
L 101.795867 109.932609 
L 105.180321 106.729579 
L 109.866488 102.631508 
L 117.416424 96.026748 
L 121.581905 92.056157 
L 125.747387 87.768203 
L 130.693897 82.336481 
L 141.888629 69.917041 
L 145.793768 65.976433 
L 149.698907 62.353017 
L 153.864388 58.795986 
L 165.840148 48.807667 
L 169.224602 45.537008 
L 172.348713 42.204305 
L 175.733167 38.25243 
L 179.898649 33.009344 
L 187.188242 23.748294 
L 189.791668 20.803048 
L 191.874409 18.730778 
L 193.696807 17.184075 
L 195.519205 15.933014 
L 197.081261 15.1276 
L 198.643317 14.593736 
L 199.94503 14.371507 
L 201.246743 14.362946 
L 202.548456 14.576866 
L 203.850169 15.020312 
L 205.151882 15.698483 
L 206.453595 16.614686 
L 207.755308 17.770311 
L 209.317363 19.472234 
L 210.879419 21.513616 
L 212.701817 24.313106 
L 214.524215 27.54419 
L 216.606956 31.73284 
L 218.95004 37.021821 
L 221.553466 43.523625 
L 224.417234 51.297065 
L 228.062031 61.865986 
L 241.599846 101.849955 
L 244.723958 110.013143 
L 247.327384 116.237753 
L 249.670467 121.327448 
L 252.013551 125.890633 
L 254.096291 129.482614 
L 256.179032 132.626446 
L 258.00143 135.007604 
L 259.823829 137.047305 
L 261.646227 138.753968 
L 263.468625 140.140722 
L 265.291023 141.225203 
L 267.113422 142.02928 
L 268.93582 142.578682 
L 270.758218 142.902553 
L 272.840959 143.037732 
L 275.184042 142.951957 
L 278.047811 142.614109 
L 286.639117 141.436563 
L 288.9822 141.40561 
L 291.064941 141.579029 
L 293.147682 141.976797 
L 295.230423 142.626208 
L 297.052821 143.417296 
L 298.875219 144.426661 
L 300.95796 145.854781 
L 303.040701 147.578187 
L 305.123442 149.593602 
L 307.466525 152.198822 
L 309.809609 155.142317 
L 312.413035 158.776693 
L 315.276804 163.164278 
L 318.661257 168.783059 
L 322.826739 176.163407 
L 329.595647 188.639725 
L 329.595647 188.639725 
" clip-path="url(#p4878c9e9a3)" style="fill: none; stroke: #32cd32; stroke-width: 1.5; stroke-linecap: square"/>
   </g>
   <g id="patch_12">
    <path d="M 56.509271 241.137882 
L 56.509271 3.00024 
" style="fill: none; stroke: #000000; stroke-width: 0.8; stroke-linejoin: miter; stroke-linecap: square"/>
   </g>
   <g id="patch_13">
    <path d="M 342.59976 241.137882 
L 342.59976 3.00024 
" style="fill: none; stroke: #000000; stroke-width: 0.8; stroke-linejoin: miter; stroke-linecap: square"/>
   </g>
   <g id="patch_14">
    <path d="M 56.509271 241.137882 
L 342.59976 241.137882 
" style="fill: none; stroke: #000000; stroke-width: 0.8; stroke-linejoin: miter; stroke-linecap: square"/>
   </g>
   <g id="patch_15">
    <path d="M 56.509271 3.00024 
L 342.59976 3.00024 
" style="fill: none; stroke: #000000; stroke-width: 0.8; stroke-linejoin: miter; stroke-linecap: square"/>
   </g>
   <g id="legend_1">
    <g id="patch_16">
     <path d="M 268.868847 34.117996 
L 336.76876 34.117996 
Q 338.43476 34.117996 338.43476 32.451996 
L 338.43476 8.83124 
Q 338.43476 7.16524 336.76876 7.16524 
L 268.868847 7.16524 
Q 267.202847 7.16524 267.202847 8.83124 
L 267.202847 32.451996 
Q 267.202847 34.117996 268.868847 34.117996 
z
" style="fill: #303030; opacity: 0.7; stroke: #202020; stroke-linejoin: miter"/>
    </g>
    <g id="patch_17">
     <path d="M 270.534847 16.826738 
L 287.194847 16.826738 
L 287.194847 10.995738 
L 270.534847 10.995738 
z
" style="fill: #1f77b4; stroke: #303030; stroke-linejoin: miter"/>
    </g>
    <g id="text_16">
     <!-- close -->
     <g style="fill: #d0d0d0" transform="translate(293.858847 16.826738) scale(0.0833 -0.0833)">
      <defs>
       <path id="DejaVuSans-63" d="M 3122 3366 
L 3122 2828 
Q 2878 2963 2633 3030 
Q 2388 3097 2138 3097 
Q 1578 3097 1268 2742 
Q 959 2388 959 1747 
Q 959 1106 1268 751 
Q 1578 397 2138 397 
Q 2388 397 2633 464 
Q 2878 531 3122 666 
L 3122 134 
Q 2881 22 2623 -34 
Q 2366 -91 2075 -91 
Q 1284 -91 818 406 
Q 353 903 353 1747 
Q 353 2603 823 3093 
Q 1294 3584 2113 3584 
Q 2378 3584 2631 3529 
Q 2884 3475 3122 3366 
z
" transform="scale(0.015625)"/>
      </defs>
      <use xlink:href="#DejaVuSans-63"/>
      <use xlink:href="#DejaVuSans-6c" x="54.980469"/>
      <use xlink:href="#DejaVuSans-6f" x="82.763672"/>
      <use xlink:href="#DejaVuSans-73" x="143.945312"/>
      <use xlink:href="#DejaVuSans-65" x="196.044922"/>
     </g>
    </g>
    <g id="line2d_16">
     <path d="M 270.534847 26.138117 
L 278.864847 26.138117 
L 287.194847 26.138117 
" style="fill: none; stroke: #32cd32; stroke-width: 1.5; stroke-linecap: square"/>
    </g>
    <g id="text_17">
     <!-- close KDE -->
     <g style="fill: #d0d0d0" transform="translate(293.858847 29.053617) scale(0.0833 -0.0833)">
      <defs>
       <path id="DejaVuSans-4b" d="M 628 4666 
L 1259 4666 
L 1259 2694 
L 3353 4666 
L 4166 4666 
L 1850 2491 
L 4331 0 
L 3500 0 
L 1259 2247 
L 1259 0 
L 628 0 
L 628 4666 
z
" transform="scale(0.015625)"/>
       <path id="DejaVuSans-44" d="M 1259 4147 
L 1259 519 
L 2022 519 
Q 2988 519 3436 956 
Q 3884 1394 3884 2338 
Q 3884 3275 3436 3711 
Q 2988 4147 2022 4147 
L 1259 4147 
z
M 628 4666 
L 1925 4666 
Q 3281 4666 3915 4102 
Q 4550 3538 4550 2338 
Q 4550 1131 3912 565 
Q 3275 0 1925 0 
L 628 0 
L 628 4666 
z
" transform="scale(0.015625)"/>
       <path id="DejaVuSans-45" d="M 628 4666 
L 3578 4666 
L 3578 4134 
L 1259 4134 
L 1259 2753 
L 3481 2753 
L 3481 2222 
L 1259 2222 
L 1259 531 
L 3634 531 
L 3634 0 
L 628 0 
L 628 4666 
z
" transform="scale(0.015625)"/>
      </defs>
      <use xlink:href="#DejaVuSans-63"/>
      <use xlink:href="#DejaVuSans-6c" x="54.980469"/>
      <use xlink:href="#DejaVuSans-6f" x="82.763672"/>
      <use xlink:href="#DejaVuSans-73" x="143.945312"/>
      <use xlink:href="#DejaVuSans-65" x="196.044922"/>
      <use xlink:href="#DejaVuSans-20" x="257.568359"/>
      <use xlink:href="#DejaVuSans-4b" x="289.355469"/>
      <use xlink:href="#DejaVuSans-44" x="354.931641"/>
      <use xlink:href="#DejaVuSans-45" x="431.933594"/>
     </g>
    </g>
   </g>
  </g>
 </g>
 <defs>
  <clipPath id="p4878c9e9a3">
   <rect x="56.509271" y="3.00024" width="286.090489" height="238.137642"/>
  </clipPath>
 </defs>
</svg>
