<?xml version="1.0" encoding="utf-8" standalone="no"?>
<!DOCTYPE svg PUBLIC "-//W3C//DTD SVG 1.1//EN"
  "http://www.w3.org/Graphics/SVG/1.1/DTD/svg11.dtd">
<svg xmlns:xlink="http://www.w3.org/1999/xlink" width="345.6pt" height="259.2pt" viewBox="0 0 345.6 259.2" xmlns="http://www.w3.org/2000/svg" version="1.1">
 <metadata>
  <rdf:RDF xmlns:dc="http://purl.org/dc/elements/1.1/" xmlns:cc="http://creativecommons.org/ns#" xmlns:rdf="http://www.w3.org/1999/02/22-rdf-syntax-ns#">
   <cc:Work>
    <dc:type rdf:resource="http://purl.org/dc/dcmitype/StillImage"/>
    <dc:date>2024-06-22T15:13:38.873645</dc:date>
    <dc:format>image/svg+xml</dc:format>
    <dc:creator>
     <cc:Agent>
      <dc:title>Matplotlib v3.7.2, https://matplotlib.org/</dc:title>
     </cc:Agent>
    </dc:creator>
   </cc:Work>
  </rdf:RDF>
 </metadata>
 <defs>
  <style type="text/css">*{stroke-linejoin: round; stroke-linecap: butt}</style>
 </defs>
 <g id="figure_1">
  <g id="patch_1">
   <path d="M 0 259.2 
L 345.6 259.2 
L 345.6 0 
L 0 0 
z
" style="fill: #202020"/>
  </g>
  <g id="axes_1">
   <g id="patch_2">
    <path d="M 35.309421 241.137882 
L 342.59976 241.137882 
L 342.59976 3.00024 
L 35.309421 3.00024 
z
" style="fill: #303030"/>
   </g>
   <g id="patch_3">
    <path d="M 49.277164 241.137882 
L 80.316592 241.137882 
L 80.316592 37.801964 
L 49.277164 37.801964 
z
" clip-path="url(#p1b2533f994)" style="fill: #1f77b4; stroke: #303030; stroke-linejoin: miter"/>
   </g>
   <g id="patch_4">
    <path d="M 80.316592 241.137882 
L 111.35602 241.137882 
L 111.35602 76.905025 
L 80.316592 76.905025 
z
" clip-path="url(#p1b2533f994)" style="fill: #1f77b4; stroke: #303030; stroke-linejoin: miter"/>
   </g>
   <g id="patch_5">
    <path d="M 111.35602 241.137882 
L 142.395448 241.137882 
L 142.395448 22.16074 
L 111.35602 22.16074 
z
" clip-path="url(#p1b2533f994)" style="fill: #1f77b4; stroke: #303030; stroke-linejoin: miter"/>
   </g>
   <g id="patch_6">
    <path d="M 142.395448 241.137882 
L 173.434877 241.137882 
L 173.434877 14.340128 
L 142.395448 14.340128 
z
" clip-path="url(#p1b2533f994)" style="fill: #1f77b4; stroke: #303030; stroke-linejoin: miter"/>
   </g>
   <g id="patch_7">
    <path d="M 173.434877 241.137882 
L 204.474305 241.137882 
L 204.474305 37.801964 
L 173.434877 37.801964 
z
" clip-path="url(#p1b2533f994)" style="fill: #1f77b4; stroke: #303030; stroke-linejoin: miter"/>
   </g>
   <g id="patch_8">
    <path d="M 204.474305 241.137882 
L 235.513733 241.137882 
L 235.513733 131.649311 
L 204.474305 131.649311 
z
" clip-path="url(#p1b2533f994)" style="fill: #1f77b4; stroke: #303030; stroke-linejoin: miter"/>
   </g>
   <g id="patch_9">
    <path d="M 235.513733 241.137882 
L 266.553161 241.137882 
L 266.553161 186.393596 
L 235.513733 186.393596 
z
" clip-path="url(#p1b2533f994)" style="fill: #1f77b4; stroke: #303030; stroke-linejoin: miter"/>
   </g>
   <g id="patch_10">
    <path d="M 266.553161 241.137882 
L 297.592589 241.137882 
L 297.592589 100.366862 
L 266.553161 100.366862 
z
" clip-path="url(#p1b2533f994)" style="fill: #1f77b4; stroke: #303030; stroke-linejoin: miter"/>
   </g>
   <g id="patch_11">
    <path d="M 297.592589 241.137882 
L 328.632017 241.137882 
L 328.632017 22.16074 
L 297.592589 22.16074 
z
" clip-path="url(#p1b2533f994)" style="fill: #1f77b4; stroke: #303030; stroke-linejoin: miter"/>
   </g>
   <g id="matplotlib.axis_1">
    <g id="xtick_1">
     <g id="line2d_1">
      <defs>
       <path id="m899c3d6d8a" d="M 0 0 
L 0 3.5 
" style="stroke: #666666; stroke-width: 0.8"/>
      </defs>
      <g>
       <use xlink:href="#m899c3d6d8a" x="49.277164" y="241.137882" style="fill: #666666; stroke: #666666; stroke-width: 0.8"/>
      </g>
     </g>
     <g id="text_1">
      <!-- 0.0 -->
      <g style="fill: #666666" transform="translate(42.653512 254.46738) scale(0.0833 -0.0833)">
       <defs>
        <path id="DejaVuSans-30" d="M 2034 4250 
Q 1547 4250 1301 3770 
Q 1056 3291 1056 2328 
Q 1056 1369 1301 889 
Q 1547 409 2034 409 
Q 2525 409 2770 889 
Q 3016 1369 3016 2328 
Q 3016 3291 2770 3770 
Q 2525 4250 2034 4250 
z
M 2034 4750 
Q 2819 4750 3233 4129 
Q 3647 3509 3647 2328 
Q 3647 1150 3233 529 
Q 2819 -91 2034 -91 
Q 1250 -91 836 529 
Q 422 1150 422 2328 
Q 422 3509 836 4129 
Q 1250 4750 2034 4750 
z
" transform="scale(0.015625)"/>
        <path id="DejaVuSans-2e" d="M 684 794 
L 1344 794 
L 1344 0 
L 684 0 
L 684 794 
z
" transform="scale(0.015625)"/>
       </defs>
       <use xlink:href="#DejaVuSans-30"/>
       <use xlink:href="#DejaVuSans-2e" x="63.623047"/>
       <use xlink:href="#DejaVuSans-30" x="95.410156"/>
      </g>
     </g>
    </g>
    <g id="xtick_2">
     <g id="line2d_2">
      <g>
       <use xlink:href="#m899c3d6d8a" x="105.148135" y="241.137882" style="fill: #666666; stroke: #666666; stroke-width: 0.8"/>
      </g>
     </g>
     <g id="text_2">
      <!-- 0.2 -->
      <g style="fill: #666666" transform="translate(98.524483 254.46738) scale(0.0833 -0.0833)">
       <defs>
        <path id="DejaVuSans-32" d="M 1228 531 
L 3431 531 
L 3431 0 
L 469 0 
L 469 531 
Q 828 903 1448 1529 
Q 2069 2156 2228 2338 
Q 2531 2678 2651 2914 
Q 2772 3150 2772 3378 
Q 2772 3750 2511 3984 
Q 2250 4219 1831 4219 
Q 1534 4219 1204 4116 
Q 875 4013 500 3803 
L 500 4441 
Q 881 4594 1212 4672 
Q 1544 4750 1819 4750 
Q 2544 4750 2975 4387 
Q 3406 4025 3406 3419 
Q 3406 3131 3298 2873 
Q 3191 2616 2906 2266 
Q 2828 2175 2409 1742 
Q 1991 1309 1228 531 
z
" transform="scale(0.015625)"/>
       </defs>
       <use xlink:href="#DejaVuSans-30"/>
       <use xlink:href="#DejaVuSans-2e" x="63.623047"/>
       <use xlink:href="#DejaVuSans-32" x="95.410156"/>
      </g>
     </g>
    </g>
    <g id="xtick_3">
     <g id="line2d_3">
      <g>
       <use xlink:href="#m899c3d6d8a" x="161.019105" y="241.137882" style="fill: #666666; stroke: #666666; stroke-width: 0.8"/>
      </g>
     </g>
     <g id="text_3">
      <!-- 0.4 -->
      <g style="fill: #666666" transform="translate(154.395454 254.46738) scale(0.0833 -0.0833)">
       <defs>
        <path id="DejaVuSans-34" d="M 2419 4116 
L 825 1625 
L 2419 1625 
L 2419 4116 
z
M 2253 4666 
L 3047 4666 
L 3047 1625 
L 3713 1625 
L 3713 1100 
L 3047 1100 
L 3047 0 
L 2419 0 
L 2419 1100 
L 313 1100 
L 313 1709 
L 2253 4666 
z
" transform="scale(0.015625)"/>
       </defs>
       <use xlink:href="#DejaVuSans-30"/>
       <use xlink:href="#DejaVuSans-2e" x="63.623047"/>
       <use xlink:href="#DejaVuSans-34" x="95.410156"/>
      </g>
     </g>
    </g>
    <g id="xtick_4">
     <g id="line2d_4">
      <g>
       <use xlink:href="#m899c3d6d8a" x="216.890076" y="241.137882" style="fill: #666666; stroke: #666666; stroke-width: 0.8"/>
      </g>
     </g>
     <g id="text_4">
      <!-- 0.6 -->
      <g style="fill: #666666" transform="translate(210.266424 254.46738) scale(0.0833 -0.0833)">
       <defs>
        <path id="DejaVuSans-36" d="M 2113 2584 
Q 1688 2584 1439 2293 
Q 1191 2003 1191 1497 
Q 1191 994 1439 701 
Q 1688 409 2113 409 
Q 2538 409 2786 701 
Q 3034 994 3034 1497 
Q 3034 2003 2786 2293 
Q 2538 2584 2113 2584 
z
M 3366 4563 
L 3366 3988 
Q 3128 4100 2886 4159 
Q 2644 4219 2406 4219 
Q 1781 4219 1451 3797 
Q 1122 3375 1075 2522 
Q 1259 2794 1537 2939 
Q 1816 3084 2150 3084 
Q 2853 3084 3261 2657 
Q 3669 2231 3669 1497 
Q 3669 778 3244 343 
Q 2819 -91 2113 -91 
Q 1303 -91 875 529 
Q 447 1150 447 2328 
Q 447 3434 972 4092 
Q 1497 4750 2381 4750 
Q 2619 4750 2861 4703 
Q 3103 4656 3366 4563 
z
" transform="scale(0.015625)"/>
       </defs>
       <use xlink:href="#DejaVuSans-30"/>
       <use xlink:href="#DejaVuSans-2e" x="63.623047"/>
       <use xlink:href="#DejaVuSans-36" x="95.410156"/>
      </g>
     </g>
    </g>
    <g id="xtick_5">
     <g id="line2d_5">
      <g>
       <use xlink:href="#m899c3d6d8a" x="272.761047" y="241.137882" style="fill: #666666; stroke: #666666; stroke-width: 0.8"/>
      </g>
     </g>
     <g id="text_5">
      <!-- 0.8 -->
      <g style="fill: #666666" transform="translate(266.137395 254.46738) scale(0.0833 -0.0833)">
       <defs>
        <path id="DejaVuSans-38" d="M 2034 2216 
Q 1584 2216 1326 1975 
Q 1069 1734 1069 1313 
Q 1069 891 1326 650 
Q 1584 409 2034 409 
Q 2484 409 2743 651 
Q 3003 894 3003 1313 
Q 3003 1734 2745 1975 
Q 2488 2216 2034 2216 
z
M 1403 2484 
Q 997 2584 770 2862 
Q 544 3141 544 3541 
Q 544 4100 942 4425 
Q 1341 4750 2034 4750 
Q 2731 4750 3128 4425 
Q 3525 4100 3525 3541 
Q 3525 3141 3298 2862 
Q 3072 2584 2669 2484 
Q 3125 2378 3379 2068 
Q 3634 1759 3634 1313 
Q 3634 634 3220 271 
Q 2806 -91 2034 -91 
Q 1263 -91 848 271 
Q 434 634 434 1313 
Q 434 1759 690 2068 
Q 947 2378 1403 2484 
z
M 1172 3481 
Q 1172 3119 1398 2916 
Q 1625 2713 2034 2713 
Q 2441 2713 2670 2916 
Q 2900 3119 2900 3481 
Q 2900 3844 2670 4047 
Q 2441 4250 2034 4250 
Q 1625 4250 1398 4047 
Q 1172 3844 1172 3481 
z
" transform="scale(0.015625)"/>
       </defs>
       <use xlink:href="#DejaVuSans-30"/>
       <use xlink:href="#DejaVuSans-2e" x="63.623047"/>
       <use xlink:href="#DejaVuSans-38" x="95.410156"/>
      </g>
     </g>
    </g>
    <g id="xtick_6">
     <g id="line2d_6">
      <g>
       <use xlink:href="#m899c3d6d8a" x="328.632017" y="241.137882" style="fill: #666666; stroke: #666666; stroke-width: 0.8"/>
      </g>
     </g>
     <g id="text_6">
      <!-- 1.0 -->
      <g style="fill: #666666" transform="translate(322.008366 254.46738) scale(0.0833 -0.0833)">
       <defs>
        <path id="DejaVuSans-31" d="M 794 531 
L 1825 531 
L 1825 4091 
L 703 3866 
L 703 4441 
L 1819 4666 
L 2450 4666 
L 2450 531 
L 3481 531 
L 3481 0 
L 794 0 
L 794 531 
z
" transform="scale(0.015625)"/>
       </defs>
       <use xlink:href="#DejaVuSans-31"/>
       <use xlink:href="#DejaVuSans-2e" x="63.623047"/>
       <use xlink:href="#DejaVuSans-30" x="95.410156"/>
      </g>
     </g>
    </g>
   </g>
   <g id="matplotlib.axis_2">
    <g id="ytick_1">
     <g id="line2d_7">
      <defs>
       <path id="m4866116fce" d="M 0 0 
L -3.5 0 
" style="stroke: #666666; stroke-width: 0.8"/>
      </defs>
      <g>
       <use xlink:href="#m4866116fce" x="35.309421" y="241.137882" style="fill: #666666; stroke: #666666; stroke-width: 0.8"/>
      </g>
     </g>
     <g id="text_7">
      <!-- 0.0 -->
      <g style="fill: #666666" transform="translate(15.062118 244.302631) scale(0.0833 -0.0833)">
       <use xlink:href="#DejaVuSans-30"/>
       <use xlink:href="#DejaVuSans-2e" x="63.623047"/>
       <use xlink:href="#DejaVuSans-30" x="95.410156"/>
      </g>
     </g>
    </g>
    <g id="ytick_2">
     <g id="line2d_8">
      <g>
       <use xlink:href="#m4866116fce" x="35.309421" y="206.90098" style="fill: #666666; stroke: #666666; stroke-width: 0.8"/>
      </g>
     </g>
     <g id="text_8">
      <!-- 0.2 -->
      <g style="fill: #666666" transform="translate(15.062118 210.065729) scale(0.0833 -0.0833)">
       <use xlink:href="#DejaVuSans-30"/>
       <use xlink:href="#DejaVuSans-2e" x="63.623047"/>
       <use xlink:href="#DejaVuSans-32" x="95.410156"/>
      </g>
     </g>
    </g>
    <g id="ytick_3">
     <g id="line2d_9">
      <g>
       <use xlink:href="#m4866116fce" x="35.309421" y="172.664077" style="fill: #666666; stroke: #666666; stroke-width: 0.8"/>
      </g>
     </g>
     <g id="text_9">
      <!-- 0.4 -->
      <g style="fill: #666666" transform="translate(15.062118 175.828826) scale(0.0833 -0.0833)">
       <use xlink:href="#DejaVuSans-30"/>
       <use xlink:href="#DejaVuSans-2e" x="63.623047"/>
       <use xlink:href="#DejaVuSans-34" x="95.410156"/>
      </g>
     </g>
    </g>
    <g id="ytick_4">
     <g id="line2d_10">
      <g>
       <use xlink:href="#m4866116fce" x="35.309421" y="138.427175" style="fill: #666666; stroke: #666666; stroke-width: 0.8"/>
      </g>
     </g>
     <g id="text_10">
      <!-- 0.6 -->
      <g style="fill: #666666" transform="translate(15.062118 141.591924) scale(0.0833 -0.0833)">
       <use xlink:href="#DejaVuSans-30"/>
       <use xlink:href="#DejaVuSans-2e" x="63.623047"/>
       <use xlink:href="#DejaVuSans-36" x="95.410156"/>
      </g>
     </g>
    </g>
    <g id="ytick_5">
     <g id="line2d_11">
      <g>
       <use xlink:href="#m4866116fce" x="35.309421" y="104.190272" style="fill: #666666; stroke: #666666; stroke-width: 0.8"/>
      </g>
     </g>
     <g id="text_11">
      <!-- 0.8 -->
      <g style="fill: #666666" transform="translate(15.062118 107.355022) scale(0.0833 -0.0833)">
       <use xlink:href="#DejaVuSans-30"/>
       <use xlink:href="#DejaVuSans-2e" x="63.623047"/>
       <use xlink:href="#DejaVuSans-38" x="95.410156"/>
      </g>
     </g>
    </g>
    <g id="ytick_6">
     <g id="line2d_12">
      <g>
       <use xlink:href="#m4866116fce" x="35.309421" y="69.95337" style="fill: #666666; stroke: #666666; stroke-width: 0.8"/>
      </g>
     </g>
     <g id="text_12">
      <!-- 1.0 -->
      <g style="fill: #666666" transform="translate(15.062118 73.118119) scale(0.0833 -0.0833)">
       <use xlink:href="#DejaVuSans-31"/>
       <use xlink:href="#DejaVuSans-2e" x="63.623047"/>
       <use xlink:href="#DejaVuSans-30" x="95.410156"/>
      </g>
     </g>
    </g>
    <g id="ytick_7">
     <g id="line2d_13">
      <g>
       <use xlink:href="#m4866116fce" x="35.309421" y="35.716468" style="fill: #666666; stroke: #666666; stroke-width: 0.8"/>
      </g>
     </g>
     <g id="text_13">
      <!-- 1.2 -->
      <g style="fill: #666666" transform="translate(15.062118 38.881217) scale(0.0833 -0.0833)">
       <use xlink:href="#DejaVuSans-31"/>
       <use xlink:href="#DejaVuSans-2e" x="63.623047"/>
       <use xlink:href="#DejaVuSans-32" x="95.410156"/>
      </g>
     </g>
    </g>
    <g id="text_14">
     <!-- probability density -->
     <g style="fill: #666666" transform="translate(9.329738 160.884909) rotate(-90) scale(0.0833 -0.0833)">
      <defs>
       <path id="DejaVuSans-70" d="M 1159 525 
L 1159 -1331 
L 581 -1331 
L 581 3500 
L 1159 3500 
L 1159 2969 
Q 1341 3281 1617 3432 
Q 1894 3584 2278 3584 
Q 2916 3584 3314 3078 
Q 3713 2572 3713 1747 
Q 3713 922 3314 415 
Q 2916 -91 2278 -91 
Q 1894 -91 1617 61 
Q 1341 213 1159 525 
z
M 3116 1747 
Q 3116 2381 2855 2742 
Q 2594 3103 2138 3103 
Q 1681 3103 1420 2742 
Q 1159 2381 1159 1747 
Q 1159 1113 1420 752 
Q 1681 391 2138 391 
Q 2594 391 2855 752 
Q 3116 1113 3116 1747 
z
" transform="scale(0.015625)"/>
       <path id="DejaVuSans-72" d="M 2631 2963 
Q 2534 3019 2420 3045 
Q 2306 3072 2169 3072 
Q 1681 3072 1420 2755 
Q 1159 2438 1159 1844 
L 1159 0 
L 581 0 
L 581 3500 
L 1159 3500 
L 1159 2956 
Q 1341 3275 1631 3429 
Q 1922 3584 2338 3584 
Q 2397 3584 2469 3576 
Q 2541 3569 2628 3553 
L 2631 2963 
z
" transform="scale(0.015625)"/>
       <path id="DejaVuSans-6f" d="M 1959 3097 
Q 1497 3097 1228 2736 
Q 959 2375 959 1747 
Q 959 1119 1226 758 
Q 1494 397 1959 397 
Q 2419 397 2687 759 
Q 2956 1122 2956 1747 
Q 2956 2369 2687 2733 
Q 2419 3097 1959 3097 
z
M 1959 3584 
Q 2709 3584 3137 3096 
Q 3566 2609 3566 1747 
Q 3566 888 3137 398 
Q 2709 -91 1959 -91 
Q 1206 -91 779 398 
Q 353 888 353 1747 
Q 353 2609 779 3096 
Q 1206 3584 1959 3584 
z
" transform="scale(0.015625)"/>
       <path id="DejaVuSans-62" d="M 3116 1747 
Q 3116 2381 2855 2742 
Q 2594 3103 2138 3103 
Q 1681 3103 1420 2742 
Q 1159 2381 1159 1747 
Q 1159 1113 1420 752 
Q 1681 391 2138 391 
Q 2594 391 2855 752 
Q 3116 1113 3116 1747 
z
M 1159 2969 
Q 1341 3281 1617 3432 
Q 1894 3584 2278 3584 
Q 2916 3584 3314 3078 
Q 3713 2572 3713 1747 
Q 3713 922 3314 415 
Q 2916 -91 2278 -91 
Q 1894 -91 1617 61 
Q 1341 213 1159 525 
L 1159 0 
L 581 0 
L 581 4863 
L 1159 4863 
L 1159 2969 
z
" transform="scale(0.015625)"/>
       <path id="DejaVuSans-61" d="M 2194 1759 
Q 1497 1759 1228 1600 
Q 959 1441 959 1056 
Q 959 750 1161 570 
Q 1363 391 1709 391 
Q 2188 391 2477 730 
Q 2766 1069 2766 1631 
L 2766 1759 
L 2194 1759 
z
M 3341 1997 
L 3341 0 
L 2766 0 
L 2766 531 
Q 2569 213 2275 61 
Q 1981 -91 1556 -91 
Q 1019 -91 701 211 
Q 384 513 384 1019 
Q 384 1609 779 1909 
Q 1175 2209 1959 2209 
L 2766 2209 
L 2766 2266 
Q 2766 2663 2505 2880 
Q 2244 3097 1772 3097 
Q 1472 3097 1187 3025 
Q 903 2953 641 2809 
L 641 3341 
Q 956 3463 1253 3523 
Q 1550 3584 1831 3584 
Q 2591 3584 2966 3190 
Q 3341 2797 3341 1997 
z
" transform="scale(0.015625)"/>
       <path id="DejaVuSans-69" d="M 603 3500 
L 1178 3500 
L 1178 0 
L 603 0 
L 603 3500 
z
M 603 4863 
L 1178 4863 
L 1178 4134 
L 603 4134 
L 603 4863 
z
" transform="scale(0.015625)"/>
       <path id="DejaVuSans-6c" d="M 603 4863 
L 1178 4863 
L 1178 0 
L 603 0 
L 603 4863 
z
" transform="scale(0.015625)"/>
       <path id="DejaVuSans-74" d="M 1172 4494 
L 1172 3500 
L 2356 3500 
L 2356 3053 
L 1172 3053 
L 1172 1153 
Q 1172 725 1289 603 
Q 1406 481 1766 481 
L 2356 481 
L 2356 0 
L 1766 0 
Q 1100 0 847 248 
Q 594 497 594 1153 
L 594 3053 
L 172 3053 
L 172 3500 
L 594 3500 
L 594 4494 
L 1172 4494 
z
" transform="scale(0.015625)"/>
       <path id="DejaVuSans-79" d="M 2059 -325 
Q 1816 -950 1584 -1140 
Q 1353 -1331 966 -1331 
L 506 -1331 
L 506 -850 
L 844 -850 
Q 1081 -850 1212 -737 
Q 1344 -625 1503 -206 
L 1606 56 
L 191 3500 
L 800 3500 
L 1894 763 
L 2988 3500 
L 3597 3500 
L 2059 -325 
z
" transform="scale(0.015625)"/>
       <path id="DejaVuSans-20" transform="scale(0.015625)"/>
       <path id="DejaVuSans-64" d="M 2906 2969 
L 2906 4863 
L 3481 4863 
L 3481 0 
L 2906 0 
L 2906 525 
Q 2725 213 2448 61 
Q 2172 -91 1784 -91 
Q 1150 -91 751 415 
Q 353 922 353 1747 
Q 353 2572 751 3078 
Q 1150 3584 1784 3584 
Q 2172 3584 2448 3432 
Q 2725 3281 2906 2969 
z
M 947 1747 
Q 947 1113 1208 752 
Q 1469 391 1925 391 
Q 2381 391 2643 752 
Q 2906 1113 2906 1747 
Q 2906 2381 2643 2742 
Q 2381 3103 1925 3103 
Q 1469 3103 1208 2742 
Q 947 2381 947 1747 
z
" transform="scale(0.015625)"/>
       <path id="DejaVuSans-65" d="M 3597 1894 
L 3597 1613 
L 953 1613 
Q 991 1019 1311 708 
Q 1631 397 2203 397 
Q 2534 397 2845 478 
Q 3156 559 3463 722 
L 3463 178 
Q 3153 47 2828 -22 
Q 2503 -91 2169 -91 
Q 1331 -91 842 396 
Q 353 884 353 1716 
Q 353 2575 817 3079 
Q 1281 3584 2069 3584 
Q 2775 3584 3186 3129 
Q 3597 2675 3597 1894 
z
M 3022 2063 
Q 3016 2534 2758 2815 
Q 2500 3097 2075 3097 
Q 1594 3097 1305 2825 
Q 1016 2553 972 2059 
L 3022 2063 
z
" transform="scale(0.015625)"/>
       <path id="DejaVuSans-6e" d="M 3513 2113 
L 3513 0 
L 2938 0 
L 2938 2094 
Q 2938 2591 2744 2837 
Q 2550 3084 2163 3084 
Q 1697 3084 1428 2787 
Q 1159 2491 1159 1978 
L 1159 0 
L 581 0 
L 581 3500 
L 1159 3500 
L 1159 2956 
Q 1366 3272 1645 3428 
Q 1925 3584 2291 3584 
Q 2894 3584 3203 3211 
Q 3513 2838 3513 2113 
z
" transform="scale(0.015625)"/>
       <path id="DejaVuSans-73" d="M 2834 3397 
L 2834 2853 
Q 2591 2978 2328 3040 
Q 2066 3103 1784 3103 
Q 1356 3103 1142 2972 
Q 928 2841 928 2578 
Q 928 2378 1081 2264 
Q 1234 2150 1697 2047 
L 1894 2003 
Q 2506 1872 2764 1633 
Q 3022 1394 3022 966 
Q 3022 478 2636 193 
Q 2250 -91 1575 -91 
Q 1294 -91 989 -36 
Q 684 19 347 128 
L 347 722 
Q 666 556 975 473 
Q 1284 391 1588 391 
Q 1994 391 2212 530 
Q 2431 669 2431 922 
Q 2431 1156 2273 1281 
Q 2116 1406 1581 1522 
L 1381 1569 
Q 847 1681 609 1914 
Q 372 2147 372 2553 
Q 372 3047 722 3315 
Q 1072 3584 1716 3584 
Q 2034 3584 2315 3537 
Q 2597 3491 2834 3397 
z
" transform="scale(0.015625)"/>
      </defs>
      <use xlink:href="#DejaVuSans-70"/>
      <use xlink:href="#DejaVuSans-72" x="63.476562"/>
      <use xlink:href="#DejaVuSans-6f" x="102.339844"/>
      <use xlink:href="#DejaVuSans-62" x="163.521484"/>
      <use xlink:href="#DejaVuSans-61" x="226.998047"/>
      <use xlink:href="#DejaVuSans-62" x="288.277344"/>
      <use xlink:href="#DejaVuSans-69" x="351.753906"/>
      <use xlink:href="#DejaVuSans-6c" x="379.537109"/>
      <use xlink:href="#DejaVuSans-69" x="407.320312"/>
      <use xlink:href="#DejaVuSans-74" x="435.103516"/>
      <use xlink:href="#DejaVuSans-79" x="474.3125"/>
      <use xlink:href="#DejaVuSans-20" x="533.492188"/>
      <use xlink:href="#DejaVuSans-64" x="565.279297"/>
      <use xlink:href="#DejaVuSans-65" x="628.755859"/>
      <use xlink:href="#DejaVuSans-6e" x="690.279297"/>
      <use xlink:href="#DejaVuSans-73" x="753.658203"/>
      <use xlink:href="#DejaVuSans-69" x="805.757812"/>
      <use xlink:href="#DejaVuSans-74" x="833.541016"/>
      <use xlink:href="#DejaVuSans-79" x="872.75"/>
     </g>
    </g>
   </g>
   <g id="line2d_14">
    <path d="M 49.277164 127.995019 
L 54.310585 116.705398 
L 58.505102 107.816477 
L 62.419985 100.000238 
L 66.334868 92.661823 
L 70.249751 85.788199 
L 74.164633 79.345874 
L 78.359151 72.869137 
L 82.833302 66.376768 
L 87.587089 59.872581 
L 92.62051 53.360866 
L 97.65393 47.200618 
L 102.407717 41.710819 
L 106.881868 36.866433 
L 111.076386 32.648855 
L 114.991269 29.032956 
L 118.626517 25.982347 
L 121.982131 23.450102 
L 125.337745 21.206462 
L 128.413724 19.414155 
L 131.489703 17.882635 
L 134.286048 16.721852 
L 137.082393 15.785732 
L 139.878738 15.078229 
L 142.675083 14.60368 
L 145.471428 14.367202 
L 148.267773 14.37499 
L 150.784483 14.59696 
L 153.301193 15.029059 
L 155.817904 15.678269 
L 158.334614 16.552099 
L 160.851325 17.658319 
L 163.368035 19.004619 
L 165.884745 20.598225 
L 168.401456 22.445479 
L 170.918166 24.5514 
L 173.714511 27.198598 
L 176.510856 30.170475 
L 179.307201 33.46451 
L 182.38318 37.451698 
L 185.45916 41.804546 
L 188.814773 46.943023 
L 192.450022 52.923766 
L 196.644539 60.278174 
L 201.67796 69.584295 
L 211.744801 88.831243 
L 217.617126 99.753593 
L 221.811643 107.107534 
L 225.446891 113.041733 
L 228.522871 117.670235 
L 231.319216 121.518238 
L 234.11556 124.986551 
L 236.632271 127.757113 
L 238.869347 129.923882 
L 241.106423 131.799775 
L 243.343499 133.375261 
L 245.30094 134.501707 
L 247.258381 135.389444 
L 249.215823 136.036814 
L 251.173264 136.443762 
L 253.130706 136.611887 
L 255.088147 136.544487 
L 257.045588 136.246592 
L 259.00303 135.724994 
L 260.960471 134.988258 
L 263.197547 133.896191 
L 265.434623 132.554974 
L 267.951333 130.774876 
L 270.747678 128.501111 
L 273.823658 125.702967 
L 277.738541 121.816574 
L 290.042458 109.311883 
L 293.118437 106.652593 
L 295.635148 104.766218 
L 297.872224 103.355588 
L 299.829665 102.356445 
L 301.787106 101.600422 
L 303.744548 101.108173 
L 305.422355 100.910279 
L 307.100162 100.930053 
L 308.777969 101.176299 
L 310.455776 101.656272 
L 312.133583 102.375577 
L 313.811389 103.338092 
L 315.489196 104.545888 
L 317.167003 105.999191 
L 319.124445 108.002693 
L 321.081886 110.332156 
L 323.318962 113.381407 
L 325.556038 116.824798 
L 328.072748 121.138716 
L 328.632017 122.156674 
L 328.632017 122.156674 
" clip-path="url(#p1b2533f994)" style="fill: none; stroke: #32cd32; stroke-width: 1.5; stroke-linecap: square"/>
   </g>
   <g id="patch_12">
    <path d="M 35.309421 241.137882 
L 35.309421 3.00024 
" style="fill: none; stroke: #000000; stroke-width: 0.8; stroke-linejoin: miter; stroke-linecap: square"/>
   </g>
   <g id="patch_13">
    <path d="M 342.59976 241.137882 
L 342.59976 3.00024 
" style="fill: none; stroke: #000000; stroke-width: 0.8; stroke-linejoin: miter; stroke-linecap: square"/>
   </g>
   <g id="patch_14">
    <path d="M 35.309421 241.137882 
L 342.59976 241.137882 
" style="fill: none; stroke: #000000; stroke-width: 0.8; stroke-linejoin: miter; stroke-linecap: square"/>
   </g>
   <g id="patch_15">
    <path d="M 35.309421 3.00024 
L 342.59976 3.00024 
" style="fill: none; stroke: #000000; stroke-width: 0.8; stroke-linejoin: miter; stroke-linecap: square"/>
   </g>
   <g id="legend_1">
    <g id="patch_16">
     <path d="M 232.365226 34.117996 
L 336.76876 34.117996 
Q 338.43476 34.117996 338.43476 32.451996 
L 338.43476 8.83124 
Q 338.43476 7.16524 336.76876 7.16524 
L 232.365226 7.16524 
Q 230.699226 7.16524 230.699226 8.83124 
L 230.699226 32.451996 
Q 230.699226 34.117996 232.365226 34.117996 
z
" style="fill: #303030; opacity: 0.7; stroke: #202020; stroke-linejoin: miter"/>
    </g>
    <g id="patch_17">
     <path d="M 234.031226 16.826738 
L 250.691226 16.826738 
L 250.691226 10.995738 
L 234.031226 10.995738 
z
" style="fill: #1f77b4; stroke: #303030; stroke-linejoin: miter"/>
    </g>
    <g id="text_15">
     <!-- minmax close -->
     <g style="fill: #d0d0d0" transform="translate(257.355226 16.826738) scale(0.0833 -0.0833)">
      <defs>
       <path id="DejaVuSans-6d" d="M 3328 2828 
Q 3544 3216 3844 3400 
Q 4144 3584 4550 3584 
Q 5097 3584 5394 3201 
Q 5691 2819 5691 2113 
L 5691 0 
L 5113 0 
L 5113 2094 
Q 5113 2597 4934 2840 
Q 4756 3084 4391 3084 
Q 3944 3084 3684 2787 
Q 3425 2491 3425 1978 
L 3425 0 
L 2847 0 
L 2847 2094 
Q 2847 2600 2669 2842 
Q 2491 3084 2119 3084 
Q 1678 3084 1418 2786 
Q 1159 2488 1159 1978 
L 1159 0 
L 581 0 
L 581 3500 
L 1159 3500 
L 1159 2956 
Q 1356 3278 1631 3431 
Q 1906 3584 2284 3584 
Q 2666 3584 2933 3390 
Q 3200 3197 3328 2828 
z
" transform="scale(0.015625)"/>
       <path id="DejaVuSans-78" d="M 3513 3500 
L 2247 1797 
L 3578 0 
L 2900 0 
L 1881 1375 
L 863 0 
L 184 0 
L 1544 1831 
L 300 3500 
L 978 3500 
L 1906 2253 
L 2834 3500 
L 3513 3500 
z
" transform="scale(0.015625)"/>
       <path id="DejaVuSans-63" d="M 3122 3366 
L 3122 2828 
Q 2878 2963 2633 3030 
Q 2388 3097 2138 3097 
Q 1578 3097 1268 2742 
Q 959 2388 959 1747 
Q 959 1106 1268 751 
Q 1578 397 2138 397 
Q 2388 397 2633 464 
Q 2878 531 3122 666 
L 3122 134 
Q 2881 22 2623 -34 
Q 2366 -91 2075 -91 
Q 1284 -91 818 406 
Q 353 903 353 1747 
Q 353 2603 823 3093 
Q 1294 3584 2113 3584 
Q 2378 3584 2631 3529 
Q 2884 3475 3122 3366 
z
" transform="scale(0.015625)"/>
      </defs>
      <use xlink:href="#DejaVuSans-6d"/>
      <use xlink:href="#DejaVuSans-69" x="97.412109"/>
      <use xlink:href="#DejaVuSans-6e" x="125.195312"/>
      <use xlink:href="#DejaVuSans-6d" x="188.574219"/>
      <use xlink:href="#DejaVuSans-61" x="285.986328"/>
      <use xlink:href="#DejaVuSans-78" x="347.265625"/>
      <use xlink:href="#DejaVuSans-20" x="406.445312"/>
      <use xlink:href="#DejaVuSans-63" x="438.232422"/>
      <use xlink:href="#DejaVuSans-6c" x="493.212891"/>
      <use xlink:href="#DejaVuSans-6f" x="520.996094"/>
      <use xlink:href="#DejaVuSans-73" x="582.177734"/>
      <use xlink:href="#DejaVuSans-65" x="634.277344"/>
     </g>
    </g>
    <g id="line2d_15">
     <path d="M 234.031226 26.138117 
L 242.361226 26.138117 
L 250.691226 26.138117 
" style="fill: none; stroke: #32cd32; stroke-width: 1.5; stroke-linecap: square"/>
    </g>
    <g id="text_16">
     <!-- minmax close KDE -->
     <g style="fill: #d0d0d0" transform="translate(257.355226 29.053617) scale(0.0833 -0.0833)">
      <defs>
       <path id="DejaVuSans-4b" d="M 628 4666 
L 1259 4666 
L 1259 2694 
L 3353 4666 
L 4166 4666 
L 1850 2491 
L 4331 0 
L 3500 0 
L 1259 2247 
L 1259 0 
L 628 0 
L 628 4666 
z
" transform="scale(0.015625)"/>
       <path id="DejaVuSans-44" d="M 1259 4147 
L 1259 519 
L 2022 519 
Q 2988 519 3436 956 
Q 3884 1394 3884 2338 
Q 3884 3275 3436 3711 
Q 2988 4147 2022 4147 
L 1259 4147 
z
M 628 4666 
L 1925 4666 
Q 3281 4666 3915 4102 
Q 4550 3538 4550 2338 
Q 4550 1131 3912 565 
Q 3275 0 1925 0 
L 628 0 
L 628 4666 
z
" transform="scale(0.015625)"/>
       <path id="DejaVuSans-45" d="M 628 4666 
L 3578 4666 
L 3578 4134 
L 1259 4134 
L 1259 2753 
L 3481 2753 
L 3481 2222 
L 1259 2222 
L 1259 531 
L 3634 531 
L 3634 0 
L 628 0 
L 628 4666 
z
" transform="scale(0.015625)"/>
      </defs>
      <use xlink:href="#DejaVuSans-6d"/>
      <use xlink:href="#DejaVuSans-69" x="97.412109"/>
      <use xlink:href="#DejaVuSans-6e" x="125.195312"/>
      <use xlink:href="#DejaVuSans-6d" x="188.574219"/>
      <use xlink:href="#DejaVuSans-61" x="285.986328"/>
      <use xlink:href="#DejaVuSans-78" x="347.265625"/>
      <use xlink:href="#DejaVuSans-20" x="406.445312"/>
      <use xlink:href="#DejaVuSans-63" x="438.232422"/>
      <use xlink:href="#DejaVuSans-6c" x="493.212891"/>
      <use xlink:href="#DejaVuSans-6f" x="520.996094"/>
      <use xlink:href="#DejaVuSans-73" x="582.177734"/>
      <use xlink:href="#DejaVuSans-65" x="634.277344"/>
      <use xlink:href="#DejaVuSans-20" x="695.800781"/>
      <use xlink:href="#DejaVuSans-4b" x="727.587891"/>
      <use xlink:href="#DejaVuSans-44" x="793.164062"/>
      <use xlink:href="#DejaVuSans-45" x="870.166016"/>
     </g>
    </g>
   </g>
  </g>
 </g>
 <defs>
  <clipPath id="p1b2533f994">
   <rect x="35.309421" y="3.00024" width="307.290339" height="238.137642"/>
  </clipPath>
 </defs>
</svg>
