<?xml version="1.0" encoding="utf-8" standalone="no"?>
<!DOCTYPE svg PUBLIC "-//W3C//DTD SVG 1.1//EN"
  "http://www.w3.org/Graphics/SVG/1.1/DTD/svg11.dtd">
<svg xmlns:xlink="http://www.w3.org/1999/xlink" width="345.6pt" height="259.2pt" viewBox="0 0 345.6 259.2" xmlns="http://www.w3.org/2000/svg" version="1.1">
 <metadata>
  <rdf:RDF xmlns:dc="http://purl.org/dc/elements/1.1/" xmlns:cc="http://creativecommons.org/ns#" xmlns:rdf="http://www.w3.org/1999/02/22-rdf-syntax-ns#">
   <cc:Work>
    <dc:type rdf:resource="http://purl.org/dc/dcmitype/StillImage"/>
    <dc:date>2024-06-22T15:05:27.814677</dc:date>
    <dc:format>image/svg+xml</dc:format>
    <dc:creator>
     <cc:Agent>
      <dc:title>Matplotlib v3.7.2, https://matplotlib.org/</dc:title>
     </cc:Agent>
    </dc:creator>
   </cc:Work>
  </rdf:RDF>
 </metadata>
 <defs>
  <style type="text/css">*{stroke-linejoin: round; stroke-linecap: butt}</style>
 </defs>
 <g id="figure_1">
  <g id="patch_1">
   <path d="M 0 259.2 
L 345.6 259.2 
L 345.6 0 
L 0 0 
z
" style="fill: #202020"/>
  </g>
  <g id="axes_1">
   <g id="patch_2">
    <path d="M 35.309421 241.137882 
L 342.59976 241.137882 
L 342.59976 3.00024 
L 35.309421 3.00024 
z
" style="fill: #303030"/>
   </g>
   <g id="patch_3">
    <path d="M 49.277164 241.137882 
L 63.980051 241.137882 
L 63.980051 228.878544 
L 49.277164 228.878544 
z
" clip-path="url(#pa7d54cbf7e)" style="fill: #1f77b4; stroke: #303030; stroke-linejoin: miter"/>
   </g>
   <g id="patch_4">
    <path d="M 63.980051 241.137882 
L 78.682938 241.137882 
L 78.682938 235.008213 
L 63.980051 235.008213 
z
" clip-path="url(#pa7d54cbf7e)" style="fill: #1f77b4; stroke: #303030; stroke-linejoin: miter"/>
   </g>
   <g id="patch_5">
    <path d="M 78.682938 241.137882 
L 93.385825 241.137882 
L 93.385825 228.878544 
L 78.682938 228.878544 
z
" clip-path="url(#pa7d54cbf7e)" style="fill: #1f77b4; stroke: #303030; stroke-linejoin: miter"/>
   </g>
   <g id="patch_6">
    <path d="M 93.385825 241.137882 
L 108.088712 241.137882 
L 108.088712 192.10053 
L 93.385825 192.10053 
z
" clip-path="url(#pa7d54cbf7e)" style="fill: #1f77b4; stroke: #303030; stroke-linejoin: miter"/>
   </g>
   <g id="patch_7">
    <path d="M 108.088712 241.137882 
L 122.791599 241.137882 
L 122.791599 210.489537 
L 108.088712 210.489537 
z
" clip-path="url(#pa7d54cbf7e)" style="fill: #1f77b4; stroke: #303030; stroke-linejoin: miter"/>
   </g>
   <g id="patch_8">
    <path d="M 122.791599 241.137882 
L 137.494486 241.137882 
L 137.494486 106.285163 
L 122.791599 106.285163 
z
" clip-path="url(#pa7d54cbf7e)" style="fill: #1f77b4; stroke: #303030; stroke-linejoin: miter"/>
   </g>
   <g id="patch_9">
    <path d="M 137.494486 241.137882 
L 152.197373 241.137882 
L 152.197373 14.340128 
L 137.494486 14.340128 
z
" clip-path="url(#pa7d54cbf7e)" style="fill: #1f77b4; stroke: #303030; stroke-linejoin: miter"/>
   </g>
   <g id="patch_10">
    <path d="M 152.197373 241.137882 
L 166.90026 241.137882 
L 166.90026 100.155494 
L 152.197373 100.155494 
z
" clip-path="url(#pa7d54cbf7e)" style="fill: #1f77b4; stroke: #303030; stroke-linejoin: miter"/>
   </g>
   <g id="patch_11">
    <path d="M 166.90026 241.137882 
L 181.603147 241.137882 
L 181.603147 14.340128 
L 166.90026 14.340128 
z
" clip-path="url(#pa7d54cbf7e)" style="fill: #1f77b4; stroke: #303030; stroke-linejoin: miter"/>
   </g>
   <g id="patch_12">
    <path d="M 181.603147 241.137882 
L 196.306034 241.137882 
L 196.306034 94.025825 
L 181.603147 94.025825 
z
" clip-path="url(#pa7d54cbf7e)" style="fill: #1f77b4; stroke: #303030; stroke-linejoin: miter"/>
   </g>
   <g id="patch_13">
    <path d="M 196.306034 241.137882 
L 211.008921 241.137882 
L 211.008921 155.322515 
L 196.306034 155.322515 
z
" clip-path="url(#pa7d54cbf7e)" style="fill: #1f77b4; stroke: #303030; stroke-linejoin: miter"/>
   </g>
   <g id="patch_14">
    <path d="M 211.008921 241.137882 
L 225.711808 241.137882 
L 225.711808 192.10053 
L 211.008921 192.10053 
z
" clip-path="url(#pa7d54cbf7e)" style="fill: #1f77b4; stroke: #303030; stroke-linejoin: miter"/>
   </g>
   <g id="patch_15">
    <path d="M 225.711808 241.137882 
L 240.414695 241.137882 
L 240.414695 198.230199 
L 225.711808 198.230199 
z
" clip-path="url(#pa7d54cbf7e)" style="fill: #1f77b4; stroke: #303030; stroke-linejoin: miter"/>
   </g>
   <g id="patch_16">
    <path d="M 240.414695 241.137882 
L 255.117582 241.137882 
L 255.117582 241.137882 
L 240.414695 241.137882 
z
" clip-path="url(#pa7d54cbf7e)" style="fill: #1f77b4; stroke: #303030; stroke-linejoin: miter"/>
   </g>
   <g id="patch_17">
    <path d="M 255.117582 241.137882 
L 269.820469 241.137882 
L 269.820469 228.878544 
L 255.117582 228.878544 
z
" clip-path="url(#pa7d54cbf7e)" style="fill: #1f77b4; stroke: #303030; stroke-linejoin: miter"/>
   </g>
   <g id="patch_18">
    <path d="M 269.820469 241.137882 
L 284.523356 241.137882 
L 284.523356 228.878544 
L 269.820469 228.878544 
z
" clip-path="url(#pa7d54cbf7e)" style="fill: #1f77b4; stroke: #303030; stroke-linejoin: miter"/>
   </g>
   <g id="patch_19">
    <path d="M 284.523356 241.137882 
L 299.226243 241.137882 
L 299.226243 241.137882 
L 284.523356 241.137882 
z
" clip-path="url(#pa7d54cbf7e)" style="fill: #1f77b4; stroke: #303030; stroke-linejoin: miter"/>
   </g>
   <g id="patch_20">
    <path d="M 299.226243 241.137882 
L 313.92913 241.137882 
L 313.92913 228.878544 
L 299.226243 228.878544 
z
" clip-path="url(#pa7d54cbf7e)" style="fill: #1f77b4; stroke: #303030; stroke-linejoin: miter"/>
   </g>
   <g id="patch_21">
    <path d="M 313.92913 241.137882 
L 328.632017 241.137882 
L 328.632017 235.008213 
L 313.92913 235.008213 
z
" clip-path="url(#pa7d54cbf7e)" style="fill: #1f77b4; stroke: #303030; stroke-linejoin: miter"/>
   </g>
   <g id="matplotlib.axis_1">
    <g id="xtick_1">
     <g id="line2d_1">
      <defs>
       <path id="m8b15017c05" d="M 0 0 
L 0 3.5 
" style="stroke: #666666; stroke-width: 0.8"/>
      </defs>
      <g>
       <use xlink:href="#m8b15017c05" x="45.126043" y="241.137882" style="fill: #666666; stroke: #666666; stroke-width: 0.8"/>
      </g>
     </g>
     <g id="text_1">
      <!-- −3 -->
      <g style="fill: #666666" transform="translate(38.985922 254.46738) scale(0.0833 -0.0833)">
       <defs>
        <path id="DejaVuSans-2212" d="M 678 2272 
L 4684 2272 
L 4684 1741 
L 678 1741 
L 678 2272 
z
" transform="scale(0.015625)"/>
        <path id="DejaVuSans-33" d="M 2597 2516 
Q 3050 2419 3304 2112 
Q 3559 1806 3559 1356 
Q 3559 666 3084 287 
Q 2609 -91 1734 -91 
Q 1441 -91 1130 -33 
Q 819 25 488 141 
L 488 750 
Q 750 597 1062 519 
Q 1375 441 1716 441 
Q 2309 441 2620 675 
Q 2931 909 2931 1356 
Q 2931 1769 2642 2001 
Q 2353 2234 1838 2234 
L 1294 2234 
L 1294 2753 
L 1863 2753 
Q 2328 2753 2575 2939 
Q 2822 3125 2822 3475 
Q 2822 3834 2567 4026 
Q 2313 4219 1838 4219 
Q 1578 4219 1281 4162 
Q 984 4106 628 3988 
L 628 4550 
Q 988 4650 1302 4700 
Q 1616 4750 1894 4750 
Q 2613 4750 3031 4423 
Q 3450 4097 3450 3541 
Q 3450 3153 3228 2886 
Q 3006 2619 2597 2516 
z
" transform="scale(0.015625)"/>
       </defs>
       <use xlink:href="#DejaVuSans-2212"/>
       <use xlink:href="#DejaVuSans-33" x="83.789062"/>
      </g>
     </g>
    </g>
    <g id="xtick_2">
     <g id="line2d_2">
      <g>
       <use xlink:href="#m8b15017c05" x="88.625997" y="241.137882" style="fill: #666666; stroke: #666666; stroke-width: 0.8"/>
      </g>
     </g>
     <g id="text_2">
      <!-- −2 -->
      <g style="fill: #666666" transform="translate(82.485876 254.46738) scale(0.0833 -0.0833)">
       <defs>
        <path id="DejaVuSans-32" d="M 1228 531 
L 3431 531 
L 3431 0 
L 469 0 
L 469 531 
Q 828 903 1448 1529 
Q 2069 2156 2228 2338 
Q 2531 2678 2651 2914 
Q 2772 3150 2772 3378 
Q 2772 3750 2511 3984 
Q 2250 4219 1831 4219 
Q 1534 4219 1204 4116 
Q 875 4013 500 3803 
L 500 4441 
Q 881 4594 1212 4672 
Q 1544 4750 1819 4750 
Q 2544 4750 2975 4387 
Q 3406 4025 3406 3419 
Q 3406 3131 3298 2873 
Q 3191 2616 2906 2266 
Q 2828 2175 2409 1742 
Q 1991 1309 1228 531 
z
" transform="scale(0.015625)"/>
       </defs>
       <use xlink:href="#DejaVuSans-2212"/>
       <use xlink:href="#DejaVuSans-32" x="83.789062"/>
      </g>
     </g>
    </g>
    <g id="xtick_3">
     <g id="line2d_3">
      <g>
       <use xlink:href="#m8b15017c05" x="132.125952" y="241.137882" style="fill: #666666; stroke: #666666; stroke-width: 0.8"/>
      </g>
     </g>
     <g id="text_3">
      <!-- −1 -->
      <g style="fill: #666666" transform="translate(125.985831 254.46738) scale(0.0833 -0.0833)">
       <defs>
        <path id="DejaVuSans-31" d="M 794 531 
L 1825 531 
L 1825 4091 
L 703 3866 
L 703 4441 
L 1819 4666 
L 2450 4666 
L 2450 531 
L 3481 531 
L 3481 0 
L 794 0 
L 794 531 
z
" transform="scale(0.015625)"/>
       </defs>
       <use xlink:href="#DejaVuSans-2212"/>
       <use xlink:href="#DejaVuSans-31" x="83.789062"/>
      </g>
     </g>
    </g>
    <g id="xtick_4">
     <g id="line2d_4">
      <g>
       <use xlink:href="#m8b15017c05" x="175.625906" y="241.137882" style="fill: #666666; stroke: #666666; stroke-width: 0.8"/>
      </g>
     </g>
     <g id="text_4">
      <!-- 0 -->
      <g style="fill: #666666" transform="translate(172.975925 254.46738) scale(0.0833 -0.0833)">
       <defs>
        <path id="DejaVuSans-30" d="M 2034 4250 
Q 1547 4250 1301 3770 
Q 1056 3291 1056 2328 
Q 1056 1369 1301 889 
Q 1547 409 2034 409 
Q 2525 409 2770 889 
Q 3016 1369 3016 2328 
Q 3016 3291 2770 3770 
Q 2525 4250 2034 4250 
z
M 2034 4750 
Q 2819 4750 3233 4129 
Q 3647 3509 3647 2328 
Q 3647 1150 3233 529 
Q 2819 -91 2034 -91 
Q 1250 -91 836 529 
Q 422 1150 422 2328 
Q 422 3509 836 4129 
Q 1250 4750 2034 4750 
z
" transform="scale(0.015625)"/>
       </defs>
       <use xlink:href="#DejaVuSans-30"/>
      </g>
     </g>
    </g>
    <g id="xtick_5">
     <g id="line2d_5">
      <g>
       <use xlink:href="#m8b15017c05" x="219.125861" y="241.137882" style="fill: #666666; stroke: #666666; stroke-width: 0.8"/>
      </g>
     </g>
     <g id="text_5">
      <!-- 1 -->
      <g style="fill: #666666" transform="translate(216.475879 254.46738) scale(0.0833 -0.0833)">
       <use xlink:href="#DejaVuSans-31"/>
      </g>
     </g>
    </g>
    <g id="xtick_6">
     <g id="line2d_6">
      <g>
       <use xlink:href="#m8b15017c05" x="262.625815" y="241.137882" style="fill: #666666; stroke: #666666; stroke-width: 0.8"/>
      </g>
     </g>
     <g id="text_6">
      <!-- 2 -->
      <g style="fill: #666666" transform="translate(259.975834 254.46738) scale(0.0833 -0.0833)">
       <use xlink:href="#DejaVuSans-32"/>
      </g>
     </g>
    </g>
    <g id="xtick_7">
     <g id="line2d_7">
      <g>
       <use xlink:href="#m8b15017c05" x="306.125769" y="241.137882" style="fill: #666666; stroke: #666666; stroke-width: 0.8"/>
      </g>
     </g>
     <g id="text_7">
      <!-- 3 -->
      <g style="fill: #666666" transform="translate(303.475788 254.46738) scale(0.0833 -0.0833)">
       <use xlink:href="#DejaVuSans-33"/>
      </g>
     </g>
    </g>
   </g>
   <g id="matplotlib.axis_2">
    <g id="ytick_1">
     <g id="line2d_8">
      <defs>
       <path id="medace18658" d="M 0 0 
L -3.5 0 
" style="stroke: #666666; stroke-width: 0.8"/>
      </defs>
      <g>
       <use xlink:href="#medace18658" x="35.309421" y="241.137882" style="fill: #666666; stroke: #666666; stroke-width: 0.8"/>
      </g>
     </g>
     <g id="text_8">
      <!-- 0.0 -->
      <g style="fill: #666666" transform="translate(15.062118 244.302631) scale(0.0833 -0.0833)">
       <defs>
        <path id="DejaVuSans-2e" d="M 684 794 
L 1344 794 
L 1344 0 
L 684 0 
L 684 794 
z
" transform="scale(0.015625)"/>
       </defs>
       <use xlink:href="#DejaVuSans-30"/>
       <use xlink:href="#DejaVuSans-2e" x="63.623047"/>
       <use xlink:href="#DejaVuSans-30" x="95.410156"/>
      </g>
     </g>
    </g>
    <g id="ytick_2">
     <g id="line2d_9">
      <g>
       <use xlink:href="#medace18658" x="35.309421" y="200.323139" style="fill: #666666; stroke: #666666; stroke-width: 0.8"/>
      </g>
     </g>
     <g id="text_9">
      <!-- 0.1 -->
      <g style="fill: #666666" transform="translate(15.062118 203.487888) scale(0.0833 -0.0833)">
       <use xlink:href="#DejaVuSans-30"/>
       <use xlink:href="#DejaVuSans-2e" x="63.623047"/>
       <use xlink:href="#DejaVuSans-31" x="95.410156"/>
      </g>
     </g>
    </g>
    <g id="ytick_3">
     <g id="line2d_10">
      <g>
       <use xlink:href="#medace18658" x="35.309421" y="159.508395" style="fill: #666666; stroke: #666666; stroke-width: 0.8"/>
      </g>
     </g>
     <g id="text_10">
      <!-- 0.2 -->
      <g style="fill: #666666" transform="translate(15.062118 162.673144) scale(0.0833 -0.0833)">
       <use xlink:href="#DejaVuSans-30"/>
       <use xlink:href="#DejaVuSans-2e" x="63.623047"/>
       <use xlink:href="#DejaVuSans-32" x="95.410156"/>
      </g>
     </g>
    </g>
    <g id="ytick_4">
     <g id="line2d_11">
      <g>
       <use xlink:href="#medace18658" x="35.309421" y="118.693652" style="fill: #666666; stroke: #666666; stroke-width: 0.8"/>
      </g>
     </g>
     <g id="text_11">
      <!-- 0.3 -->
      <g style="fill: #666666" transform="translate(15.062118 121.858401) scale(0.0833 -0.0833)">
       <use xlink:href="#DejaVuSans-30"/>
       <use xlink:href="#DejaVuSans-2e" x="63.623047"/>
       <use xlink:href="#DejaVuSans-33" x="95.410156"/>
      </g>
     </g>
    </g>
    <g id="ytick_5">
     <g id="line2d_12">
      <g>
       <use xlink:href="#medace18658" x="35.309421" y="77.878908" style="fill: #666666; stroke: #666666; stroke-width: 0.8"/>
      </g>
     </g>
     <g id="text_12">
      <!-- 0.4 -->
      <g style="fill: #666666" transform="translate(15.062118 81.043658) scale(0.0833 -0.0833)">
       <defs>
        <path id="DejaVuSans-34" d="M 2419 4116 
L 825 1625 
L 2419 1625 
L 2419 4116 
z
M 2253 4666 
L 3047 4666 
L 3047 1625 
L 3713 1625 
L 3713 1100 
L 3047 1100 
L 3047 0 
L 2419 0 
L 2419 1100 
L 313 1100 
L 313 1709 
L 2253 4666 
z
" transform="scale(0.015625)"/>
       </defs>
       <use xlink:href="#DejaVuSans-30"/>
       <use xlink:href="#DejaVuSans-2e" x="63.623047"/>
       <use xlink:href="#DejaVuSans-34" x="95.410156"/>
      </g>
     </g>
    </g>
    <g id="ytick_6">
     <g id="line2d_13">
      <g>
       <use xlink:href="#medace18658" x="35.309421" y="37.064165" style="fill: #666666; stroke: #666666; stroke-width: 0.8"/>
      </g>
     </g>
     <g id="text_13">
      <!-- 0.5 -->
      <g style="fill: #666666" transform="translate(15.062118 40.228914) scale(0.0833 -0.0833)">
       <defs>
        <path id="DejaVuSans-35" d="M 691 4666 
L 3169 4666 
L 3169 4134 
L 1269 4134 
L 1269 2991 
Q 1406 3038 1543 3061 
Q 1681 3084 1819 3084 
Q 2600 3084 3056 2656 
Q 3513 2228 3513 1497 
Q 3513 744 3044 326 
Q 2575 -91 1722 -91 
Q 1428 -91 1123 -41 
Q 819 9 494 109 
L 494 744 
Q 775 591 1075 516 
Q 1375 441 1709 441 
Q 2250 441 2565 725 
Q 2881 1009 2881 1497 
Q 2881 1984 2565 2268 
Q 2250 2553 1709 2553 
Q 1456 2553 1204 2497 
Q 953 2441 691 2322 
L 691 4666 
z
" transform="scale(0.015625)"/>
       </defs>
       <use xlink:href="#DejaVuSans-30"/>
       <use xlink:href="#DejaVuSans-2e" x="63.623047"/>
       <use xlink:href="#DejaVuSans-35" x="95.410156"/>
      </g>
     </g>
    </g>
    <g id="text_14">
     <!-- probability density -->
     <g style="fill: #666666" transform="translate(9.329738 160.884909) rotate(-90) scale(0.0833 -0.0833)">
      <defs>
       <path id="DejaVuSans-70" d="M 1159 525 
L 1159 -1331 
L 581 -1331 
L 581 3500 
L 1159 3500 
L 1159 2969 
Q 1341 3281 1617 3432 
Q 1894 3584 2278 3584 
Q 2916 3584 3314 3078 
Q 3713 2572 3713 1747 
Q 3713 922 3314 415 
Q 2916 -91 2278 -91 
Q 1894 -91 1617 61 
Q 1341 213 1159 525 
z
M 3116 1747 
Q 3116 2381 2855 2742 
Q 2594 3103 2138 3103 
Q 1681 3103 1420 2742 
Q 1159 2381 1159 1747 
Q 1159 1113 1420 752 
Q 1681 391 2138 391 
Q 2594 391 2855 752 
Q 3116 1113 3116 1747 
z
" transform="scale(0.015625)"/>
       <path id="DejaVuSans-72" d="M 2631 2963 
Q 2534 3019 2420 3045 
Q 2306 3072 2169 3072 
Q 1681 3072 1420 2755 
Q 1159 2438 1159 1844 
L 1159 0 
L 581 0 
L 581 3500 
L 1159 3500 
L 1159 2956 
Q 1341 3275 1631 3429 
Q 1922 3584 2338 3584 
Q 2397 3584 2469 3576 
Q 2541 3569 2628 3553 
L 2631 2963 
z
" transform="scale(0.015625)"/>
       <path id="DejaVuSans-6f" d="M 1959 3097 
Q 1497 3097 1228 2736 
Q 959 2375 959 1747 
Q 959 1119 1226 758 
Q 1494 397 1959 397 
Q 2419 397 2687 759 
Q 2956 1122 2956 1747 
Q 2956 2369 2687 2733 
Q 2419 3097 1959 3097 
z
M 1959 3584 
Q 2709 3584 3137 3096 
Q 3566 2609 3566 1747 
Q 3566 888 3137 398 
Q 2709 -91 1959 -91 
Q 1206 -91 779 398 
Q 353 888 353 1747 
Q 353 2609 779 3096 
Q 1206 3584 1959 3584 
z
" transform="scale(0.015625)"/>
       <path id="DejaVuSans-62" d="M 3116 1747 
Q 3116 2381 2855 2742 
Q 2594 3103 2138 3103 
Q 1681 3103 1420 2742 
Q 1159 2381 1159 1747 
Q 1159 1113 1420 752 
Q 1681 391 2138 391 
Q 2594 391 2855 752 
Q 3116 1113 3116 1747 
z
M 1159 2969 
Q 1341 3281 1617 3432 
Q 1894 3584 2278 3584 
Q 2916 3584 3314 3078 
Q 3713 2572 3713 1747 
Q 3713 922 3314 415 
Q 2916 -91 2278 -91 
Q 1894 -91 1617 61 
Q 1341 213 1159 525 
L 1159 0 
L 581 0 
L 581 4863 
L 1159 4863 
L 1159 2969 
z
" transform="scale(0.015625)"/>
       <path id="DejaVuSans-61" d="M 2194 1759 
Q 1497 1759 1228 1600 
Q 959 1441 959 1056 
Q 959 750 1161 570 
Q 1363 391 1709 391 
Q 2188 391 2477 730 
Q 2766 1069 2766 1631 
L 2766 1759 
L 2194 1759 
z
M 3341 1997 
L 3341 0 
L 2766 0 
L 2766 531 
Q 2569 213 2275 61 
Q 1981 -91 1556 -91 
Q 1019 -91 701 211 
Q 384 513 384 1019 
Q 384 1609 779 1909 
Q 1175 2209 1959 2209 
L 2766 2209 
L 2766 2266 
Q 2766 2663 2505 2880 
Q 2244 3097 1772 3097 
Q 1472 3097 1187 3025 
Q 903 2953 641 2809 
L 641 3341 
Q 956 3463 1253 3523 
Q 1550 3584 1831 3584 
Q 2591 3584 2966 3190 
Q 3341 2797 3341 1997 
z
" transform="scale(0.015625)"/>
       <path id="DejaVuSans-69" d="M 603 3500 
L 1178 3500 
L 1178 0 
L 603 0 
L 603 3500 
z
M 603 4863 
L 1178 4863 
L 1178 4134 
L 603 4134 
L 603 4863 
z
" transform="scale(0.015625)"/>
       <path id="DejaVuSans-6c" d="M 603 4863 
L 1178 4863 
L 1178 0 
L 603 0 
L 603 4863 
z
" transform="scale(0.015625)"/>
       <path id="DejaVuSans-74" d="M 1172 4494 
L 1172 3500 
L 2356 3500 
L 2356 3053 
L 1172 3053 
L 1172 1153 
Q 1172 725 1289 603 
Q 1406 481 1766 481 
L 2356 481 
L 2356 0 
L 1766 0 
Q 1100 0 847 248 
Q 594 497 594 1153 
L 594 3053 
L 172 3053 
L 172 3500 
L 594 3500 
L 594 4494 
L 1172 4494 
z
" transform="scale(0.015625)"/>
       <path id="DejaVuSans-79" d="M 2059 -325 
Q 1816 -950 1584 -1140 
Q 1353 -1331 966 -1331 
L 506 -1331 
L 506 -850 
L 844 -850 
Q 1081 -850 1212 -737 
Q 1344 -625 1503 -206 
L 1606 56 
L 191 3500 
L 800 3500 
L 1894 763 
L 2988 3500 
L 3597 3500 
L 2059 -325 
z
" transform="scale(0.015625)"/>
       <path id="DejaVuSans-20" transform="scale(0.015625)"/>
       <path id="DejaVuSans-64" d="M 2906 2969 
L 2906 4863 
L 3481 4863 
L 3481 0 
L 2906 0 
L 2906 525 
Q 2725 213 2448 61 
Q 2172 -91 1784 -91 
Q 1150 -91 751 415 
Q 353 922 353 1747 
Q 353 2572 751 3078 
Q 1150 3584 1784 3584 
Q 2172 3584 2448 3432 
Q 2725 3281 2906 2969 
z
M 947 1747 
Q 947 1113 1208 752 
Q 1469 391 1925 391 
Q 2381 391 2643 752 
Q 2906 1113 2906 1747 
Q 2906 2381 2643 2742 
Q 2381 3103 1925 3103 
Q 1469 3103 1208 2742 
Q 947 2381 947 1747 
z
" transform="scale(0.015625)"/>
       <path id="DejaVuSans-65" d="M 3597 1894 
L 3597 1613 
L 953 1613 
Q 991 1019 1311 708 
Q 1631 397 2203 397 
Q 2534 397 2845 478 
Q 3156 559 3463 722 
L 3463 178 
Q 3153 47 2828 -22 
Q 2503 -91 2169 -91 
Q 1331 -91 842 396 
Q 353 884 353 1716 
Q 353 2575 817 3079 
Q 1281 3584 2069 3584 
Q 2775 3584 3186 3129 
Q 3597 2675 3597 1894 
z
M 3022 2063 
Q 3016 2534 2758 2815 
Q 2500 3097 2075 3097 
Q 1594 3097 1305 2825 
Q 1016 2553 972 2059 
L 3022 2063 
z
" transform="scale(0.015625)"/>
       <path id="DejaVuSans-6e" d="M 3513 2113 
L 3513 0 
L 2938 0 
L 2938 2094 
Q 2938 2591 2744 2837 
Q 2550 3084 2163 3084 
Q 1697 3084 1428 2787 
Q 1159 2491 1159 1978 
L 1159 0 
L 581 0 
L 581 3500 
L 1159 3500 
L 1159 2956 
Q 1366 3272 1645 3428 
Q 1925 3584 2291 3584 
Q 2894 3584 3203 3211 
Q 3513 2838 3513 2113 
z
" transform="scale(0.015625)"/>
       <path id="DejaVuSans-73" d="M 2834 3397 
L 2834 2853 
Q 2591 2978 2328 3040 
Q 2066 3103 1784 3103 
Q 1356 3103 1142 2972 
Q 928 2841 928 2578 
Q 928 2378 1081 2264 
Q 1234 2150 1697 2047 
L 1894 2003 
Q 2506 1872 2764 1633 
Q 3022 1394 3022 966 
Q 3022 478 2636 193 
Q 2250 -91 1575 -91 
Q 1294 -91 989 -36 
Q 684 19 347 128 
L 347 722 
Q 666 556 975 473 
Q 1284 391 1588 391 
Q 1994 391 2212 530 
Q 2431 669 2431 922 
Q 2431 1156 2273 1281 
Q 2116 1406 1581 1522 
L 1381 1569 
Q 847 1681 609 1914 
Q 372 2147 372 2553 
Q 372 3047 722 3315 
Q 1072 3584 1716 3584 
Q 2034 3584 2315 3537 
Q 2597 3491 2834 3397 
z
" transform="scale(0.015625)"/>
      </defs>
      <use xlink:href="#DejaVuSans-70"/>
      <use xlink:href="#DejaVuSans-72" x="63.476562"/>
      <use xlink:href="#DejaVuSans-6f" x="102.339844"/>
      <use xlink:href="#DejaVuSans-62" x="163.521484"/>
      <use xlink:href="#DejaVuSans-61" x="226.998047"/>
      <use xlink:href="#DejaVuSans-62" x="288.277344"/>
      <use xlink:href="#DejaVuSans-69" x="351.753906"/>
      <use xlink:href="#DejaVuSans-6c" x="379.537109"/>
      <use xlink:href="#DejaVuSans-69" x="407.320312"/>
      <use xlink:href="#DejaVuSans-74" x="435.103516"/>
      <use xlink:href="#DejaVuSans-79" x="474.3125"/>
      <use xlink:href="#DejaVuSans-20" x="533.492188"/>
      <use xlink:href="#DejaVuSans-64" x="565.279297"/>
      <use xlink:href="#DejaVuSans-65" x="628.755859"/>
      <use xlink:href="#DejaVuSans-6e" x="690.279297"/>
      <use xlink:href="#DejaVuSans-73" x="753.658203"/>
      <use xlink:href="#DejaVuSans-69" x="805.757812"/>
      <use xlink:href="#DejaVuSans-74" x="833.541016"/>
      <use xlink:href="#DejaVuSans-79" x="872.75"/>
     </g>
    </g>
   </g>
   <g id="line2d_14">
    <path d="M 49.277164 234.339973 
L 54.590219 233.079334 
L 65.495964 230.628554 
L 68.292309 229.69497 
L 70.809019 228.614216 
L 73.046095 227.417321 
L 75.283171 225.968456 
L 77.520247 224.250788 
L 79.757323 222.260179 
L 82.274033 219.705108 
L 85.070378 216.505869 
L 88.146358 212.602636 
L 91.222337 208.345434 
L 94.298316 203.739764 
L 97.094661 199.195104 
L 99.611372 194.71981 
L 101.848448 190.336225 
L 104.085524 185.466074 
L 106.322599 180.002553 
L 108.280041 174.655951 
L 110.237482 168.72266 
L 112.474558 161.177019 
L 114.711634 152.80186 
L 117.228344 142.4332 
L 120.024689 129.89772 
L 123.939572 111.14832 
L 130.091531 81.627412 
L 132.608241 70.600157 
L 134.845317 61.723626 
L 136.802759 54.81723 
L 138.480566 49.599063 
L 140.158372 45.052054 
L 141.836179 41.171809 
L 143.234352 38.426728 
L 144.632524 36.094117 
L 146.030697 34.133407 
L 147.708504 32.201616 
L 149.386311 30.636998 
L 151.343752 29.136508 
L 154.699366 26.930155 
L 157.775345 24.822792 
L 160.292056 22.822005 
L 163.368035 20.055356 
L 167.003283 16.805447 
L 168.68109 15.583962 
L 170.079263 14.831732 
L 171.197801 14.461267 
L 172.316339 14.340128 
L 173.155242 14.436096 
L 173.994146 14.709082 
L 174.833049 15.172951 
L 175.671952 15.840067 
L 176.79049 17.063844 
L 177.909028 18.687499 
L 179.027566 20.724161 
L 180.146104 23.179773 
L 181.544277 26.835459 
L 182.942449 31.12365 
L 184.620256 37.051581 
L 186.577697 44.924716 
L 188.814773 54.943125 
L 191.890753 69.879649 
L 198.881615 104.239232 
L 201.67796 116.634388 
L 204.19467 126.717512 
L 206.431746 134.775706 
L 208.668822 142.014437 
L 210.905898 148.518478 
L 213.422608 155.108417 
L 216.218953 161.762735 
L 219.854202 169.799541 
L 237.750809 208.187855 
L 240.267519 212.855082 
L 242.504595 216.543986 
L 244.462036 219.36005 
L 246.419478 221.762666 
L 248.097285 223.486276 
L 249.775092 224.906037 
L 251.452899 226.038056 
L 253.130706 226.907194 
L 254.808513 227.545483 
L 256.765954 228.048339 
L 259.00303 228.383269 
L 262.079009 228.598014 
L 268.230968 228.972759 
L 271.306947 229.410799 
L 274.382927 230.072606 
L 278.29781 231.158534 
L 285.288672 233.137894 
L 288.364651 233.758205 
L 291.160996 234.108015 
L 294.236975 234.252891 
L 297.592589 234.173484 
L 303.464913 233.748387 
L 308.2187 233.495955 
L 311.853948 233.515275 
L 315.489196 233.75657 
L 319.404079 234.242613 
L 324.157866 235.066905 
L 328.632017 235.983628 
L 328.632017 235.983628 
" clip-path="url(#pa7d54cbf7e)" style="fill: none; stroke: #32cd32; stroke-width: 1.5; stroke-linecap: square"/>
   </g>
   <g id="patch_22">
    <path d="M 35.309421 241.137882 
L 35.309421 3.00024 
" style="fill: none; stroke: #000000; stroke-width: 0.8; stroke-linejoin: miter; stroke-linecap: square"/>
   </g>
   <g id="patch_23">
    <path d="M 342.59976 241.137882 
L 342.59976 3.00024 
" style="fill: none; stroke: #000000; stroke-width: 0.8; stroke-linejoin: miter; stroke-linecap: square"/>
   </g>
   <g id="patch_24">
    <path d="M 35.309421 241.137882 
L 342.59976 241.137882 
" style="fill: none; stroke: #000000; stroke-width: 0.8; stroke-linejoin: miter; stroke-linecap: square"/>
   </g>
   <g id="patch_25">
    <path d="M 35.309421 3.00024 
L 342.59976 3.00024 
" style="fill: none; stroke: #000000; stroke-width: 0.8; stroke-linejoin: miter; stroke-linecap: square"/>
   </g>
   <g id="legend_1">
    <g id="patch_26">
     <path d="M 246.947932 34.117996 
L 336.76876 34.117996 
Q 338.43476 34.117996 338.43476 32.451996 
L 338.43476 8.83124 
Q 338.43476 7.16524 336.76876 7.16524 
L 246.947932 7.16524 
Q 245.281932 7.16524 245.281932 8.83124 
L 245.281932 32.451996 
Q 245.281932 34.117996 246.947932 34.117996 
z
" style="fill: #303030; opacity: 0.7; stroke: #202020; stroke-linejoin: miter"/>
    </g>
    <g id="patch_27">
     <path d="M 248.613932 16.826738 
L 265.273932 16.826738 
L 265.273932 10.995738 
L 248.613932 10.995738 
z
" style="fill: #1f77b4; stroke: #303030; stroke-linejoin: miter"/>
    </g>
    <g id="text_15">
     <!-- robust low -->
     <g style="fill: #d0d0d0" transform="translate(271.937932 16.826738) scale(0.0833 -0.0833)">
      <defs>
       <path id="DejaVuSans-75" d="M 544 1381 
L 544 3500 
L 1119 3500 
L 1119 1403 
Q 1119 906 1312 657 
Q 1506 409 1894 409 
Q 2359 409 2629 706 
Q 2900 1003 2900 1516 
L 2900 3500 
L 3475 3500 
L 3475 0 
L 2900 0 
L 2900 538 
Q 2691 219 2414 64 
Q 2138 -91 1772 -91 
Q 1169 -91 856 284 
Q 544 659 544 1381 
z
M 1991 3584 
L 1991 3584 
z
" transform="scale(0.015625)"/>
       <path id="DejaVuSans-77" d="M 269 3500 
L 844 3500 
L 1563 769 
L 2278 3500 
L 2956 3500 
L 3675 769 
L 4391 3500 
L 4966 3500 
L 4050 0 
L 3372 0 
L 2619 2869 
L 1863 0 
L 1184 0 
L 269 3500 
z
" transform="scale(0.015625)"/>
      </defs>
      <use xlink:href="#DejaVuSans-72"/>
      <use xlink:href="#DejaVuSans-6f" x="38.863281"/>
      <use xlink:href="#DejaVuSans-62" x="100.044922"/>
      <use xlink:href="#DejaVuSans-75" x="163.521484"/>
      <use xlink:href="#DejaVuSans-73" x="226.900391"/>
      <use xlink:href="#DejaVuSans-74" x="279"/>
      <use xlink:href="#DejaVuSans-20" x="318.208984"/>
      <use xlink:href="#DejaVuSans-6c" x="349.996094"/>
      <use xlink:href="#DejaVuSans-6f" x="377.779297"/>
      <use xlink:href="#DejaVuSans-77" x="438.960938"/>
     </g>
    </g>
    <g id="line2d_15">
     <path d="M 248.613932 26.138117 
L 256.943932 26.138117 
L 265.273932 26.138117 
" style="fill: none; stroke: #32cd32; stroke-width: 1.5; stroke-linecap: square"/>
    </g>
    <g id="text_16">
     <!-- robust low KDE -->
     <g style="fill: #d0d0d0" transform="translate(271.937932 29.053617) scale(0.0833 -0.0833)">
      <defs>
       <path id="DejaVuSans-4b" d="M 628 4666 
L 1259 4666 
L 1259 2694 
L 3353 4666 
L 4166 4666 
L 1850 2491 
L 4331 0 
L 3500 0 
L 1259 2247 
L 1259 0 
L 628 0 
L 628 4666 
z
" transform="scale(0.015625)"/>
       <path id="DejaVuSans-44" d="M 1259 4147 
L 1259 519 
L 2022 519 
Q 2988 519 3436 956 
Q 3884 1394 3884 2338 
Q 3884 3275 3436 3711 
Q 2988 4147 2022 4147 
L 1259 4147 
z
M 628 4666 
L 1925 4666 
Q 3281 4666 3915 4102 
Q 4550 3538 4550 2338 
Q 4550 1131 3912 565 
Q 3275 0 1925 0 
L 628 0 
L 628 4666 
z
" transform="scale(0.015625)"/>
       <path id="DejaVuSans-45" d="M 628 4666 
L 3578 4666 
L 3578 4134 
L 1259 4134 
L 1259 2753 
L 3481 2753 
L 3481 2222 
L 1259 2222 
L 1259 531 
L 3634 531 
L 3634 0 
L 628 0 
L 628 4666 
z
" transform="scale(0.015625)"/>
      </defs>
      <use xlink:href="#DejaVuSans-72"/>
      <use xlink:href="#DejaVuSans-6f" x="38.863281"/>
      <use xlink:href="#DejaVuSans-62" x="100.044922"/>
      <use xlink:href="#DejaVuSans-75" x="163.521484"/>
      <use xlink:href="#DejaVuSans-73" x="226.900391"/>
      <use xlink:href="#DejaVuSans-74" x="279"/>
      <use xlink:href="#DejaVuSans-20" x="318.208984"/>
      <use xlink:href="#DejaVuSans-6c" x="349.996094"/>
      <use xlink:href="#DejaVuSans-6f" x="377.779297"/>
      <use xlink:href="#DejaVuSans-77" x="438.960938"/>
      <use xlink:href="#DejaVuSans-20" x="520.748047"/>
      <use xlink:href="#DejaVuSans-4b" x="552.535156"/>
      <use xlink:href="#DejaVuSans-44" x="618.111328"/>
      <use xlink:href="#DejaVuSans-45" x="695.113281"/>
     </g>
    </g>
   </g>
  </g>
 </g>
 <defs>
  <clipPath id="pa7d54cbf7e">
   <rect x="35.309421" y="3.00024" width="307.290339" height="238.137642"/>
  </clipPath>
 </defs>
</svg>
