<?xml version="1.0" encoding="utf-8" standalone="no"?>
<!DOCTYPE svg PUBLIC "-//W3C//DTD SVG 1.1//EN"
  "http://www.w3.org/Graphics/SVG/1.1/DTD/svg11.dtd">
<svg xmlns:xlink="http://www.w3.org/1999/xlink" width="345.6pt" height="259.2pt" viewBox="0 0 345.6 259.2" xmlns="http://www.w3.org/2000/svg" version="1.1">
 <metadata>
  <rdf:RDF xmlns:dc="http://purl.org/dc/elements/1.1/" xmlns:cc="http://creativecommons.org/ns#" xmlns:rdf="http://www.w3.org/1999/02/22-rdf-syntax-ns#">
   <cc:Work>
    <dc:type rdf:resource="http://purl.org/dc/dcmitype/StillImage"/>
    <dc:date>2024-06-22T15:21:32.349874</dc:date>
    <dc:format>image/svg+xml</dc:format>
    <dc:creator>
     <cc:Agent>
      <dc:title>Matplotlib v3.7.2, https://matplotlib.org/</dc:title>
     </cc:Agent>
    </dc:creator>
   </cc:Work>
  </rdf:RDF>
 </metadata>
 <defs>
  <style type="text/css">*{stroke-linejoin: round; stroke-linecap: butt}</style>
 </defs>
 <g id="figure_1">
  <g id="patch_1">
   <path d="M 0 259.2 
L 345.6 259.2 
L 345.6 0 
L 0 0 
z
" style="fill: #202020"/>
  </g>
  <g id="axes_1">
   <g id="patch_2">
    <path d="M 32.662043 241.137882 
L 342.59976 241.137882 
L 342.59976 3.00024 
L 32.662043 3.00024 
z
" style="fill: #303030"/>
   </g>
   <g id="patch_3">
    <path d="M 46.750121 241.137882 
L 59.000624 241.137882 
L 59.000624 221.126315 
L 46.750121 221.126315 
z
" clip-path="url(#pd54fa0ba5d)" style="fill: #1f77b4; stroke: #303030; stroke-linejoin: miter"/>
   </g>
   <g id="patch_4">
    <path d="M 59.000624 241.137882 
L 71.251126 241.137882 
L 71.251126 241.137882 
L 59.000624 241.137882 
z
" clip-path="url(#pd54fa0ba5d)" style="fill: #1f77b4; stroke: #303030; stroke-linejoin: miter"/>
   </g>
   <g id="patch_5">
    <path d="M 71.251126 241.137882 
L 83.501629 241.137882 
L 83.501629 234.46736 
L 71.251126 234.46736 
z
" clip-path="url(#pd54fa0ba5d)" style="fill: #1f77b4; stroke: #303030; stroke-linejoin: miter"/>
   </g>
   <g id="patch_6">
    <path d="M 83.501629 241.137882 
L 95.752132 241.137882 
L 95.752132 221.126315 
L 83.501629 221.126315 
z
" clip-path="url(#pd54fa0ba5d)" style="fill: #1f77b4; stroke: #303030; stroke-linejoin: miter"/>
   </g>
   <g id="patch_7">
    <path d="M 95.752132 241.137882 
L 108.002634 241.137882 
L 108.002634 214.455793 
L 95.752132 214.455793 
z
" clip-path="url(#pd54fa0ba5d)" style="fill: #1f77b4; stroke: #303030; stroke-linejoin: miter"/>
   </g>
   <g id="patch_8">
    <path d="M 108.002634 241.137882 
L 120.253137 241.137882 
L 120.253137 214.455793 
L 108.002634 214.455793 
z
" clip-path="url(#pd54fa0ba5d)" style="fill: #1f77b4; stroke: #303030; stroke-linejoin: miter"/>
   </g>
   <g id="patch_9">
    <path d="M 120.253137 241.137882 
L 132.50364 241.137882 
L 132.50364 201.114749 
L 120.253137 201.114749 
z
" clip-path="url(#pd54fa0ba5d)" style="fill: #1f77b4; stroke: #303030; stroke-linejoin: miter"/>
   </g>
   <g id="patch_10">
    <path d="M 132.50364 241.137882 
L 144.754142 241.137882 
L 144.754142 141.080049 
L 132.50364 141.080049 
z
" clip-path="url(#pd54fa0ba5d)" style="fill: #1f77b4; stroke: #303030; stroke-linejoin: miter"/>
   </g>
   <g id="patch_11">
    <path d="M 144.754142 241.137882 
L 157.004645 241.137882 
L 157.004645 167.762138 
L 144.754142 167.762138 
z
" clip-path="url(#pd54fa0ba5d)" style="fill: #1f77b4; stroke: #303030; stroke-linejoin: miter"/>
   </g>
   <g id="patch_12">
    <path d="M 157.004645 241.137882 
L 169.255148 241.137882 
L 169.255148 74.374827 
L 157.004645 74.374827 
z
" clip-path="url(#pd54fa0ba5d)" style="fill: #1f77b4; stroke: #303030; stroke-linejoin: miter"/>
   </g>
   <g id="patch_13">
    <path d="M 169.255148 241.137882 
L 181.50565 241.137882 
L 181.50565 14.340128 
L 169.255148 14.340128 
z
" clip-path="url(#pd54fa0ba5d)" style="fill: #1f77b4; stroke: #303030; stroke-linejoin: miter"/>
   </g>
   <g id="patch_14">
    <path d="M 181.50565 241.137882 
L 193.756153 241.137882 
L 193.756153 27.681172 
L 181.50565 27.681172 
z
" clip-path="url(#pd54fa0ba5d)" style="fill: #1f77b4; stroke: #303030; stroke-linejoin: miter"/>
   </g>
   <g id="patch_15">
    <path d="M 193.756153 241.137882 
L 206.006656 241.137882 
L 206.006656 67.704305 
L 193.756153 67.704305 
z
" clip-path="url(#pd54fa0ba5d)" style="fill: #1f77b4; stroke: #303030; stroke-linejoin: miter"/>
   </g>
   <g id="patch_16">
    <path d="M 206.006656 241.137882 
L 218.257158 241.137882 
L 218.257158 181.103182 
L 206.006656 181.103182 
z
" clip-path="url(#pd54fa0ba5d)" style="fill: #1f77b4; stroke: #303030; stroke-linejoin: miter"/>
   </g>
   <g id="patch_17">
    <path d="M 218.257158 241.137882 
L 230.507661 241.137882 
L 230.507661 181.103182 
L 218.257158 181.103182 
z
" clip-path="url(#pd54fa0ba5d)" style="fill: #1f77b4; stroke: #303030; stroke-linejoin: miter"/>
   </g>
   <g id="patch_18">
    <path d="M 230.507661 241.137882 
L 242.758163 241.137882 
L 242.758163 214.455793 
L 230.507661 214.455793 
z
" clip-path="url(#pd54fa0ba5d)" style="fill: #1f77b4; stroke: #303030; stroke-linejoin: miter"/>
   </g>
   <g id="patch_19">
    <path d="M 242.758163 241.137882 
L 255.008666 241.137882 
L 255.008666 227.796838 
L 242.758163 227.796838 
z
" clip-path="url(#pd54fa0ba5d)" style="fill: #1f77b4; stroke: #303030; stroke-linejoin: miter"/>
   </g>
   <g id="patch_20">
    <path d="M 255.008666 241.137882 
L 267.259169 241.137882 
L 267.259169 221.126315 
L 255.008666 221.126315 
z
" clip-path="url(#pd54fa0ba5d)" style="fill: #1f77b4; stroke: #303030; stroke-linejoin: miter"/>
   </g>
   <g id="patch_21">
    <path d="M 267.259169 241.137882 
L 279.509671 241.137882 
L 279.509671 241.137882 
L 267.259169 241.137882 
z
" clip-path="url(#pd54fa0ba5d)" style="fill: #1f77b4; stroke: #303030; stroke-linejoin: miter"/>
   </g>
   <g id="patch_22">
    <path d="M 279.509671 241.137882 
L 291.760174 241.137882 
L 291.760174 234.46736 
L 279.509671 234.46736 
z
" clip-path="url(#pd54fa0ba5d)" style="fill: #1f77b4; stroke: #303030; stroke-linejoin: miter"/>
   </g>
   <g id="patch_23">
    <path d="M 291.760174 241.137882 
L 304.010677 241.137882 
L 304.010677 241.137882 
L 291.760174 241.137882 
z
" clip-path="url(#pd54fa0ba5d)" style="fill: #1f77b4; stroke: #303030; stroke-linejoin: miter"/>
   </g>
   <g id="patch_24">
    <path d="M 304.010677 241.137882 
L 316.261179 241.137882 
L 316.261179 221.126315 
L 304.010677 221.126315 
z
" clip-path="url(#pd54fa0ba5d)" style="fill: #1f77b4; stroke: #303030; stroke-linejoin: miter"/>
   </g>
   <g id="patch_25">
    <path d="M 316.261179 241.137882 
L 328.511682 241.137882 
L 328.511682 227.796838 
L 316.261179 227.796838 
z
" clip-path="url(#pd54fa0ba5d)" style="fill: #1f77b4; stroke: #303030; stroke-linejoin: miter"/>
   </g>
   <g id="matplotlib.axis_1">
    <g id="xtick_1">
     <g id="line2d_1">
      <defs>
       <path id="md435f01d55" d="M 0 0 
L 0 3.5 
" style="stroke: #666666; stroke-width: 0.8"/>
      </defs>
      <g>
       <use xlink:href="#md435f01d55" x="43.478692" y="241.137882" style="fill: #666666; stroke: #666666; stroke-width: 0.8"/>
      </g>
     </g>
     <g id="text_1">
      <!-- −0.06 -->
      <g style="fill: #666666" transform="translate(30.71492 254.46738) scale(0.0833 -0.0833)">
       <defs>
        <path id="DejaVuSans-2212" d="M 678 2272 
L 4684 2272 
L 4684 1741 
L 678 1741 
L 678 2272 
z
" transform="scale(0.015625)"/>
        <path id="DejaVuSans-30" d="M 2034 4250 
Q 1547 4250 1301 3770 
Q 1056 3291 1056 2328 
Q 1056 1369 1301 889 
Q 1547 409 2034 409 
Q 2525 409 2770 889 
Q 3016 1369 3016 2328 
Q 3016 3291 2770 3770 
Q 2525 4250 2034 4250 
z
M 2034 4750 
Q 2819 4750 3233 4129 
Q 3647 3509 3647 2328 
Q 3647 1150 3233 529 
Q 2819 -91 2034 -91 
Q 1250 -91 836 529 
Q 422 1150 422 2328 
Q 422 3509 836 4129 
Q 1250 4750 2034 4750 
z
" transform="scale(0.015625)"/>
        <path id="DejaVuSans-2e" d="M 684 794 
L 1344 794 
L 1344 0 
L 684 0 
L 684 794 
z
" transform="scale(0.015625)"/>
        <path id="DejaVuSans-36" d="M 2113 2584 
Q 1688 2584 1439 2293 
Q 1191 2003 1191 1497 
Q 1191 994 1439 701 
Q 1688 409 2113 409 
Q 2538 409 2786 701 
Q 3034 994 3034 1497 
Q 3034 2003 2786 2293 
Q 2538 2584 2113 2584 
z
M 3366 4563 
L 3366 3988 
Q 3128 4100 2886 4159 
Q 2644 4219 2406 4219 
Q 1781 4219 1451 3797 
Q 1122 3375 1075 2522 
Q 1259 2794 1537 2939 
Q 1816 3084 2150 3084 
Q 2853 3084 3261 2657 
Q 3669 2231 3669 1497 
Q 3669 778 3244 343 
Q 2819 -91 2113 -91 
Q 1303 -91 875 529 
Q 447 1150 447 2328 
Q 447 3434 972 4092 
Q 1497 4750 2381 4750 
Q 2619 4750 2861 4703 
Q 3103 4656 3366 4563 
z
" transform="scale(0.015625)"/>
       </defs>
       <use xlink:href="#DejaVuSans-2212"/>
       <use xlink:href="#DejaVuSans-30" x="83.789062"/>
       <use xlink:href="#DejaVuSans-2e" x="147.412109"/>
       <use xlink:href="#DejaVuSans-30" x="179.199219"/>
       <use xlink:href="#DejaVuSans-36" x="242.822266"/>
      </g>
     </g>
    </g>
    <g id="xtick_2">
     <g id="line2d_2">
      <g>
       <use xlink:href="#md435f01d55" x="88.766304" y="241.137882" style="fill: #666666; stroke: #666666; stroke-width: 0.8"/>
      </g>
     </g>
     <g id="text_2">
      <!-- −0.04 -->
      <g style="fill: #666666" transform="translate(76.002531 254.46738) scale(0.0833 -0.0833)">
       <defs>
        <path id="DejaVuSans-34" d="M 2419 4116 
L 825 1625 
L 2419 1625 
L 2419 4116 
z
M 2253 4666 
L 3047 4666 
L 3047 1625 
L 3713 1625 
L 3713 1100 
L 3047 1100 
L 3047 0 
L 2419 0 
L 2419 1100 
L 313 1100 
L 313 1709 
L 2253 4666 
z
" transform="scale(0.015625)"/>
       </defs>
       <use xlink:href="#DejaVuSans-2212"/>
       <use xlink:href="#DejaVuSans-30" x="83.789062"/>
       <use xlink:href="#DejaVuSans-2e" x="147.412109"/>
       <use xlink:href="#DejaVuSans-30" x="179.199219"/>
       <use xlink:href="#DejaVuSans-34" x="242.822266"/>
      </g>
     </g>
    </g>
    <g id="xtick_3">
     <g id="line2d_3">
      <g>
       <use xlink:href="#md435f01d55" x="134.053916" y="241.137882" style="fill: #666666; stroke: #666666; stroke-width: 0.8"/>
      </g>
     </g>
     <g id="text_3">
      <!-- −0.02 -->
      <g style="fill: #666666" transform="translate(121.290143 254.46738) scale(0.0833 -0.0833)">
       <defs>
        <path id="DejaVuSans-32" d="M 1228 531 
L 3431 531 
L 3431 0 
L 469 0 
L 469 531 
Q 828 903 1448 1529 
Q 2069 2156 2228 2338 
Q 2531 2678 2651 2914 
Q 2772 3150 2772 3378 
Q 2772 3750 2511 3984 
Q 2250 4219 1831 4219 
Q 1534 4219 1204 4116 
Q 875 4013 500 3803 
L 500 4441 
Q 881 4594 1212 4672 
Q 1544 4750 1819 4750 
Q 2544 4750 2975 4387 
Q 3406 4025 3406 3419 
Q 3406 3131 3298 2873 
Q 3191 2616 2906 2266 
Q 2828 2175 2409 1742 
Q 1991 1309 1228 531 
z
" transform="scale(0.015625)"/>
       </defs>
       <use xlink:href="#DejaVuSans-2212"/>
       <use xlink:href="#DejaVuSans-30" x="83.789062"/>
       <use xlink:href="#DejaVuSans-2e" x="147.412109"/>
       <use xlink:href="#DejaVuSans-30" x="179.199219"/>
       <use xlink:href="#DejaVuSans-32" x="242.822266"/>
      </g>
     </g>
    </g>
    <g id="xtick_4">
     <g id="line2d_4">
      <g>
       <use xlink:href="#md435f01d55" x="179.341527" y="241.137882" style="fill: #666666; stroke: #666666; stroke-width: 0.8"/>
      </g>
     </g>
     <g id="text_4">
      <!-- 0.00 -->
      <g style="fill: #666666" transform="translate(170.067894 254.46738) scale(0.0833 -0.0833)">
       <use xlink:href="#DejaVuSans-30"/>
       <use xlink:href="#DejaVuSans-2e" x="63.623047"/>
       <use xlink:href="#DejaVuSans-30" x="95.410156"/>
       <use xlink:href="#DejaVuSans-30" x="159.033203"/>
      </g>
     </g>
    </g>
    <g id="xtick_5">
     <g id="line2d_5">
      <g>
       <use xlink:href="#md435f01d55" x="224.629139" y="241.137882" style="fill: #666666; stroke: #666666; stroke-width: 0.8"/>
      </g>
     </g>
     <g id="text_5">
      <!-- 0.02 -->
      <g style="fill: #666666" transform="translate(215.355506 254.46738) scale(0.0833 -0.0833)">
       <use xlink:href="#DejaVuSans-30"/>
       <use xlink:href="#DejaVuSans-2e" x="63.623047"/>
       <use xlink:href="#DejaVuSans-30" x="95.410156"/>
       <use xlink:href="#DejaVuSans-32" x="159.033203"/>
      </g>
     </g>
    </g>
    <g id="xtick_6">
     <g id="line2d_6">
      <g>
       <use xlink:href="#md435f01d55" x="269.91675" y="241.137882" style="fill: #666666; stroke: #666666; stroke-width: 0.8"/>
      </g>
     </g>
     <g id="text_6">
      <!-- 0.04 -->
      <g style="fill: #666666" transform="translate(260.643118 254.46738) scale(0.0833 -0.0833)">
       <use xlink:href="#DejaVuSans-30"/>
       <use xlink:href="#DejaVuSans-2e" x="63.623047"/>
       <use xlink:href="#DejaVuSans-30" x="95.410156"/>
       <use xlink:href="#DejaVuSans-34" x="159.033203"/>
      </g>
     </g>
    </g>
    <g id="xtick_7">
     <g id="line2d_7">
      <g>
       <use xlink:href="#md435f01d55" x="315.204362" y="241.137882" style="fill: #666666; stroke: #666666; stroke-width: 0.8"/>
      </g>
     </g>
     <g id="text_7">
      <!-- 0.06 -->
      <g style="fill: #666666" transform="translate(305.930729 254.46738) scale(0.0833 -0.0833)">
       <use xlink:href="#DejaVuSans-30"/>
       <use xlink:href="#DejaVuSans-2e" x="63.623047"/>
       <use xlink:href="#DejaVuSans-30" x="95.410156"/>
       <use xlink:href="#DejaVuSans-36" x="159.033203"/>
      </g>
     </g>
    </g>
   </g>
   <g id="matplotlib.axis_2">
    <g id="ytick_1">
     <g id="line2d_8">
      <defs>
       <path id="mbe0b098598" d="M 0 0 
L -3.5 0 
" style="stroke: #666666; stroke-width: 0.8"/>
      </defs>
      <g>
       <use xlink:href="#mbe0b098598" x="32.662043" y="241.137882" style="fill: #666666; stroke: #666666; stroke-width: 0.8"/>
      </g>
     </g>
     <g id="text_8">
      <!-- 0 -->
      <g style="fill: #666666" transform="translate(20.362081 244.302631) scale(0.0833 -0.0833)">
       <use xlink:href="#DejaVuSans-30"/>
      </g>
     </g>
    </g>
    <g id="ytick_2">
     <g id="line2d_9">
      <g>
       <use xlink:href="#mbe0b098598" x="32.662043" y="205.591079" style="fill: #666666; stroke: #666666; stroke-width: 0.8"/>
      </g>
     </g>
     <g id="text_9">
      <!-- 5 -->
      <g style="fill: #666666" transform="translate(20.362081 208.755828) scale(0.0833 -0.0833)">
       <defs>
        <path id="DejaVuSans-35" d="M 691 4666 
L 3169 4666 
L 3169 4134 
L 1269 4134 
L 1269 2991 
Q 1406 3038 1543 3061 
Q 1681 3084 1819 3084 
Q 2600 3084 3056 2656 
Q 3513 2228 3513 1497 
Q 3513 744 3044 326 
Q 2575 -91 1722 -91 
Q 1428 -91 1123 -41 
Q 819 9 494 109 
L 494 744 
Q 775 591 1075 516 
Q 1375 441 1709 441 
Q 2250 441 2565 725 
Q 2881 1009 2881 1497 
Q 2881 1984 2565 2268 
Q 2250 2553 1709 2553 
Q 1456 2553 1204 2497 
Q 953 2441 691 2322 
L 691 4666 
z
" transform="scale(0.015625)"/>
       </defs>
       <use xlink:href="#DejaVuSans-35"/>
      </g>
     </g>
    </g>
    <g id="ytick_3">
     <g id="line2d_10">
      <g>
       <use xlink:href="#mbe0b098598" x="32.662043" y="170.044275" style="fill: #666666; stroke: #666666; stroke-width: 0.8"/>
      </g>
     </g>
     <g id="text_10">
      <!-- 10 -->
      <g style="fill: #666666" transform="translate(15.062118 173.209025) scale(0.0833 -0.0833)">
       <defs>
        <path id="DejaVuSans-31" d="M 794 531 
L 1825 531 
L 1825 4091 
L 703 3866 
L 703 4441 
L 1819 4666 
L 2450 4666 
L 2450 531 
L 3481 531 
L 3481 0 
L 794 0 
L 794 531 
z
" transform="scale(0.015625)"/>
       </defs>
       <use xlink:href="#DejaVuSans-31"/>
       <use xlink:href="#DejaVuSans-30" x="63.623047"/>
      </g>
     </g>
    </g>
    <g id="ytick_4">
     <g id="line2d_11">
      <g>
       <use xlink:href="#mbe0b098598" x="32.662043" y="134.497472" style="fill: #666666; stroke: #666666; stroke-width: 0.8"/>
      </g>
     </g>
     <g id="text_11">
      <!-- 15 -->
      <g style="fill: #666666" transform="translate(15.062118 137.662221) scale(0.0833 -0.0833)">
       <use xlink:href="#DejaVuSans-31"/>
       <use xlink:href="#DejaVuSans-35" x="63.623047"/>
      </g>
     </g>
    </g>
    <g id="ytick_5">
     <g id="line2d_12">
      <g>
       <use xlink:href="#mbe0b098598" x="32.662043" y="98.950669" style="fill: #666666; stroke: #666666; stroke-width: 0.8"/>
      </g>
     </g>
     <g id="text_12">
      <!-- 20 -->
      <g style="fill: #666666" transform="translate(15.062118 102.115418) scale(0.0833 -0.0833)">
       <use xlink:href="#DejaVuSans-32"/>
       <use xlink:href="#DejaVuSans-30" x="63.623047"/>
      </g>
     </g>
    </g>
    <g id="ytick_6">
     <g id="line2d_13">
      <g>
       <use xlink:href="#mbe0b098598" x="32.662043" y="63.403866" style="fill: #666666; stroke: #666666; stroke-width: 0.8"/>
      </g>
     </g>
     <g id="text_13">
      <!-- 25 -->
      <g style="fill: #666666" transform="translate(15.062118 66.568615) scale(0.0833 -0.0833)">
       <use xlink:href="#DejaVuSans-32"/>
       <use xlink:href="#DejaVuSans-35" x="63.623047"/>
      </g>
     </g>
    </g>
    <g id="ytick_7">
     <g id="line2d_14">
      <g>
       <use xlink:href="#mbe0b098598" x="32.662043" y="27.857063" style="fill: #666666; stroke: #666666; stroke-width: 0.8"/>
      </g>
     </g>
     <g id="text_14">
      <!-- 30 -->
      <g style="fill: #666666" transform="translate(15.062118 31.021812) scale(0.0833 -0.0833)">
       <defs>
        <path id="DejaVuSans-33" d="M 2597 2516 
Q 3050 2419 3304 2112 
Q 3559 1806 3559 1356 
Q 3559 666 3084 287 
Q 2609 -91 1734 -91 
Q 1441 -91 1130 -33 
Q 819 25 488 141 
L 488 750 
Q 750 597 1062 519 
Q 1375 441 1716 441 
Q 2309 441 2620 675 
Q 2931 909 2931 1356 
Q 2931 1769 2642 2001 
Q 2353 2234 1838 2234 
L 1294 2234 
L 1294 2753 
L 1863 2753 
Q 2328 2753 2575 2939 
Q 2822 3125 2822 3475 
Q 2822 3834 2567 4026 
Q 2313 4219 1838 4219 
Q 1578 4219 1281 4162 
Q 984 4106 628 3988 
L 628 4550 
Q 988 4650 1302 4700 
Q 1616 4750 1894 4750 
Q 2613 4750 3031 4423 
Q 3450 4097 3450 3541 
Q 3450 3153 3228 2886 
Q 3006 2619 2597 2516 
z
" transform="scale(0.015625)"/>
       </defs>
       <use xlink:href="#DejaVuSans-33"/>
       <use xlink:href="#DejaVuSans-30" x="63.623047"/>
      </g>
     </g>
    </g>
    <g id="text_15">
     <!-- probability density -->
     <g style="fill: #666666" transform="translate(9.329738 160.884909) rotate(-90) scale(0.0833 -0.0833)">
      <defs>
       <path id="DejaVuSans-70" d="M 1159 525 
L 1159 -1331 
L 581 -1331 
L 581 3500 
L 1159 3500 
L 1159 2969 
Q 1341 3281 1617 3432 
Q 1894 3584 2278 3584 
Q 2916 3584 3314 3078 
Q 3713 2572 3713 1747 
Q 3713 922 3314 415 
Q 2916 -91 2278 -91 
Q 1894 -91 1617 61 
Q 1341 213 1159 525 
z
M 3116 1747 
Q 3116 2381 2855 2742 
Q 2594 3103 2138 3103 
Q 1681 3103 1420 2742 
Q 1159 2381 1159 1747 
Q 1159 1113 1420 752 
Q 1681 391 2138 391 
Q 2594 391 2855 752 
Q 3116 1113 3116 1747 
z
" transform="scale(0.015625)"/>
       <path id="DejaVuSans-72" d="M 2631 2963 
Q 2534 3019 2420 3045 
Q 2306 3072 2169 3072 
Q 1681 3072 1420 2755 
Q 1159 2438 1159 1844 
L 1159 0 
L 581 0 
L 581 3500 
L 1159 3500 
L 1159 2956 
Q 1341 3275 1631 3429 
Q 1922 3584 2338 3584 
Q 2397 3584 2469 3576 
Q 2541 3569 2628 3553 
L 2631 2963 
z
" transform="scale(0.015625)"/>
       <path id="DejaVuSans-6f" d="M 1959 3097 
Q 1497 3097 1228 2736 
Q 959 2375 959 1747 
Q 959 1119 1226 758 
Q 1494 397 1959 397 
Q 2419 397 2687 759 
Q 2956 1122 2956 1747 
Q 2956 2369 2687 2733 
Q 2419 3097 1959 3097 
z
M 1959 3584 
Q 2709 3584 3137 3096 
Q 3566 2609 3566 1747 
Q 3566 888 3137 398 
Q 2709 -91 1959 -91 
Q 1206 -91 779 398 
Q 353 888 353 1747 
Q 353 2609 779 3096 
Q 1206 3584 1959 3584 
z
" transform="scale(0.015625)"/>
       <path id="DejaVuSans-62" d="M 3116 1747 
Q 3116 2381 2855 2742 
Q 2594 3103 2138 3103 
Q 1681 3103 1420 2742 
Q 1159 2381 1159 1747 
Q 1159 1113 1420 752 
Q 1681 391 2138 391 
Q 2594 391 2855 752 
Q 3116 1113 3116 1747 
z
M 1159 2969 
Q 1341 3281 1617 3432 
Q 1894 3584 2278 3584 
Q 2916 3584 3314 3078 
Q 3713 2572 3713 1747 
Q 3713 922 3314 415 
Q 2916 -91 2278 -91 
Q 1894 -91 1617 61 
Q 1341 213 1159 525 
L 1159 0 
L 581 0 
L 581 4863 
L 1159 4863 
L 1159 2969 
z
" transform="scale(0.015625)"/>
       <path id="DejaVuSans-61" d="M 2194 1759 
Q 1497 1759 1228 1600 
Q 959 1441 959 1056 
Q 959 750 1161 570 
Q 1363 391 1709 391 
Q 2188 391 2477 730 
Q 2766 1069 2766 1631 
L 2766 1759 
L 2194 1759 
z
M 3341 1997 
L 3341 0 
L 2766 0 
L 2766 531 
Q 2569 213 2275 61 
Q 1981 -91 1556 -91 
Q 1019 -91 701 211 
Q 384 513 384 1019 
Q 384 1609 779 1909 
Q 1175 2209 1959 2209 
L 2766 2209 
L 2766 2266 
Q 2766 2663 2505 2880 
Q 2244 3097 1772 3097 
Q 1472 3097 1187 3025 
Q 903 2953 641 2809 
L 641 3341 
Q 956 3463 1253 3523 
Q 1550 3584 1831 3584 
Q 2591 3584 2966 3190 
Q 3341 2797 3341 1997 
z
" transform="scale(0.015625)"/>
       <path id="DejaVuSans-69" d="M 603 3500 
L 1178 3500 
L 1178 0 
L 603 0 
L 603 3500 
z
M 603 4863 
L 1178 4863 
L 1178 4134 
L 603 4134 
L 603 4863 
z
" transform="scale(0.015625)"/>
       <path id="DejaVuSans-6c" d="M 603 4863 
L 1178 4863 
L 1178 0 
L 603 0 
L 603 4863 
z
" transform="scale(0.015625)"/>
       <path id="DejaVuSans-74" d="M 1172 4494 
L 1172 3500 
L 2356 3500 
L 2356 3053 
L 1172 3053 
L 1172 1153 
Q 1172 725 1289 603 
Q 1406 481 1766 481 
L 2356 481 
L 2356 0 
L 1766 0 
Q 1100 0 847 248 
Q 594 497 594 1153 
L 594 3053 
L 172 3053 
L 172 3500 
L 594 3500 
L 594 4494 
L 1172 4494 
z
" transform="scale(0.015625)"/>
       <path id="DejaVuSans-79" d="M 2059 -325 
Q 1816 -950 1584 -1140 
Q 1353 -1331 966 -1331 
L 506 -1331 
L 506 -850 
L 844 -850 
Q 1081 -850 1212 -737 
Q 1344 -625 1503 -206 
L 1606 56 
L 191 3500 
L 800 3500 
L 1894 763 
L 2988 3500 
L 3597 3500 
L 2059 -325 
z
" transform="scale(0.015625)"/>
       <path id="DejaVuSans-20" transform="scale(0.015625)"/>
       <path id="DejaVuSans-64" d="M 2906 2969 
L 2906 4863 
L 3481 4863 
L 3481 0 
L 2906 0 
L 2906 525 
Q 2725 213 2448 61 
Q 2172 -91 1784 -91 
Q 1150 -91 751 415 
Q 353 922 353 1747 
Q 353 2572 751 3078 
Q 1150 3584 1784 3584 
Q 2172 3584 2448 3432 
Q 2725 3281 2906 2969 
z
M 947 1747 
Q 947 1113 1208 752 
Q 1469 391 1925 391 
Q 2381 391 2643 752 
Q 2906 1113 2906 1747 
Q 2906 2381 2643 2742 
Q 2381 3103 1925 3103 
Q 1469 3103 1208 2742 
Q 947 2381 947 1747 
z
" transform="scale(0.015625)"/>
       <path id="DejaVuSans-65" d="M 3597 1894 
L 3597 1613 
L 953 1613 
Q 991 1019 1311 708 
Q 1631 397 2203 397 
Q 2534 397 2845 478 
Q 3156 559 3463 722 
L 3463 178 
Q 3153 47 2828 -22 
Q 2503 -91 2169 -91 
Q 1331 -91 842 396 
Q 353 884 353 1716 
Q 353 2575 817 3079 
Q 1281 3584 2069 3584 
Q 2775 3584 3186 3129 
Q 3597 2675 3597 1894 
z
M 3022 2063 
Q 3016 2534 2758 2815 
Q 2500 3097 2075 3097 
Q 1594 3097 1305 2825 
Q 1016 2553 972 2059 
L 3022 2063 
z
" transform="scale(0.015625)"/>
       <path id="DejaVuSans-6e" d="M 3513 2113 
L 3513 0 
L 2938 0 
L 2938 2094 
Q 2938 2591 2744 2837 
Q 2550 3084 2163 3084 
Q 1697 3084 1428 2787 
Q 1159 2491 1159 1978 
L 1159 0 
L 581 0 
L 581 3500 
L 1159 3500 
L 1159 2956 
Q 1366 3272 1645 3428 
Q 1925 3584 2291 3584 
Q 2894 3584 3203 3211 
Q 3513 2838 3513 2113 
z
" transform="scale(0.015625)"/>
       <path id="DejaVuSans-73" d="M 2834 3397 
L 2834 2853 
Q 2591 2978 2328 3040 
Q 2066 3103 1784 3103 
Q 1356 3103 1142 2972 
Q 928 2841 928 2578 
Q 928 2378 1081 2264 
Q 1234 2150 1697 2047 
L 1894 2003 
Q 2506 1872 2764 1633 
Q 3022 1394 3022 966 
Q 3022 478 2636 193 
Q 2250 -91 1575 -91 
Q 1294 -91 989 -36 
Q 684 19 347 128 
L 347 722 
Q 666 556 975 473 
Q 1284 391 1588 391 
Q 1994 391 2212 530 
Q 2431 669 2431 922 
Q 2431 1156 2273 1281 
Q 2116 1406 1581 1522 
L 1381 1569 
Q 847 1681 609 1914 
Q 372 2147 372 2553 
Q 372 3047 722 3315 
Q 1072 3584 1716 3584 
Q 2034 3584 2315 3537 
Q 2597 3491 2834 3397 
z
" transform="scale(0.015625)"/>
      </defs>
      <use xlink:href="#DejaVuSans-70"/>
      <use xlink:href="#DejaVuSans-72" x="63.476562"/>
      <use xlink:href="#DejaVuSans-6f" x="102.339844"/>
      <use xlink:href="#DejaVuSans-62" x="163.521484"/>
      <use xlink:href="#DejaVuSans-61" x="226.998047"/>
      <use xlink:href="#DejaVuSans-62" x="288.277344"/>
      <use xlink:href="#DejaVuSans-69" x="351.753906"/>
      <use xlink:href="#DejaVuSans-6c" x="379.537109"/>
      <use xlink:href="#DejaVuSans-69" x="407.320312"/>
      <use xlink:href="#DejaVuSans-74" x="435.103516"/>
      <use xlink:href="#DejaVuSans-79" x="474.3125"/>
      <use xlink:href="#DejaVuSans-20" x="533.492188"/>
      <use xlink:href="#DejaVuSans-64" x="565.279297"/>
      <use xlink:href="#DejaVuSans-65" x="628.755859"/>
      <use xlink:href="#DejaVuSans-6e" x="690.279297"/>
      <use xlink:href="#DejaVuSans-73" x="753.658203"/>
      <use xlink:href="#DejaVuSans-69" x="805.757812"/>
      <use xlink:href="#DejaVuSans-74" x="833.541016"/>
      <use xlink:href="#DejaVuSans-79" x="872.75"/>
     </g>
    </g>
   </g>
   <g id="line2d_15">
    <path d="M 46.750121 233.529866 
L 50.416688 232.973872 
L 54.365298 232.603324 
L 66.21113 231.699039 
L 69.031566 231.152985 
L 71.569958 230.445179 
L 74.108351 229.50661 
L 76.646743 228.330523 
L 79.467179 226.761479 
L 82.569659 224.77044 
L 87.082357 221.569553 
L 94.697534 216.156553 
L 100.056362 212.687373 
L 105.415191 209.175222 
L 108.235627 207.04786 
L 110.491976 205.08458 
L 112.748325 202.814995 
L 114.72263 200.531709 
L 116.696935 197.938765 
L 118.67124 195.015638 
L 120.927589 191.258213 
L 123.183938 187.058158 
L 125.72233 181.825451 
L 128.542766 175.43006 
L 131.645246 167.768534 
L 135.029769 158.758556 
L 138.414293 149.132351 
L 142.080859 138.004267 
L 145.465383 127.011653 
L 148.849906 115.228518 
L 152.234429 102.600356 
L 155.900996 88.043615 
L 167.18274 42.452256 
L 169.439089 34.644212 
L 171.413394 28.609293 
L 173.105656 24.150313 
L 174.515874 21.004777 
L 175.926092 18.42534 
L 177.054266 16.79516 
L 178.182441 15.567931 
L 179.028572 14.919909 
L 179.874702 14.510228 
L 180.720833 14.342097 
L 181.566964 14.41763 
L 182.413095 14.737843 
L 183.259226 15.302648 
L 184.105357 16.110861 
L 185.233531 17.563048 
L 186.361705 19.435538 
L 187.48988 21.716836 
L 188.900098 25.120912 
L 190.310316 29.106182 
L 192.002577 34.597669 
L 193.976883 41.878704 
L 196.233231 51.174867 
L 199.053668 63.912595 
L 203.002278 82.975717 
L 209.771325 115.729965 
L 212.873804 129.635219 
L 215.69424 141.296463 
L 218.232633 150.896772 
L 220.771025 159.6265 
L 223.309418 167.510415 
L 225.84781 174.605946 
L 228.386202 180.989785 
L 230.924595 186.745626 
L 233.462987 191.954506 
L 236.00138 196.688549 
L 238.821816 201.464824 
L 241.642252 205.79561 
L 244.462688 209.733144 
L 247.283124 213.319854 
L 250.385604 216.902739 
L 253.488083 220.144777 
L 256.590563 223.076975 
L 259.693042 225.718066 
L 262.795522 228.072605 
L 265.615958 229.957467 
L 268.436394 231.585905 
L 271.25683 232.943661 
L 273.795223 233.924593 
L 276.333615 234.672628 
L 278.872008 235.188467 
L 281.4104 235.477738 
L 283.948792 235.550326 
L 286.769229 235.393153 
L 289.589665 235.007665 
L 292.692144 234.353535 
L 296.358711 233.334395 
L 302.281627 231.400474 
L 306.794324 230.026356 
L 309.896804 229.315024 
L 312.435197 228.950255 
L 314.973589 228.820745 
L 317.229938 228.919129 
L 319.486287 229.219634 
L 322.024679 229.784744 
L 324.845115 230.655614 
L 328.229638 231.950639 
L 328.511682 232.067196 
L 328.511682 232.067196 
" clip-path="url(#pd54fa0ba5d)" style="fill: none; stroke: #32cd32; stroke-width: 1.5; stroke-linecap: square"/>
   </g>
   <g id="patch_26">
    <path d="M 32.662043 241.137882 
L 32.662043 3.00024 
" style="fill: none; stroke: #000000; stroke-width: 0.8; stroke-linejoin: miter; stroke-linecap: square"/>
   </g>
   <g id="patch_27">
    <path d="M 342.59976 241.137882 
L 342.59976 3.00024 
" style="fill: none; stroke: #000000; stroke-width: 0.8; stroke-linejoin: miter; stroke-linecap: square"/>
   </g>
   <g id="patch_28">
    <path d="M 32.662043 241.137882 
L 342.59976 241.137882 
" style="fill: none; stroke: #000000; stroke-width: 0.8; stroke-linejoin: miter; stroke-linecap: square"/>
   </g>
   <g id="patch_29">
    <path d="M 32.662043 3.00024 
L 342.59976 3.00024 
" style="fill: none; stroke: #000000; stroke-width: 0.8; stroke-linejoin: miter; stroke-linecap: square"/>
   </g>
   <g id="legend_1">
    <g id="patch_30">
     <path d="M 243.513108 34.117996 
L 336.76876 34.117996 
Q 338.43476 34.117996 338.43476 32.451996 
L 338.43476 8.83124 
Q 338.43476 7.16524 336.76876 7.16524 
L 243.513108 7.16524 
Q 241.847108 7.16524 241.847108 8.83124 
L 241.847108 32.451996 
Q 241.847108 34.117996 243.513108 34.117996 
z
" style="fill: #303030; opacity: 0.7; stroke: #202020; stroke-linejoin: miter"/>
    </g>
    <g id="patch_31">
     <path d="M 245.179108 16.826738 
L 261.839108 16.826738 
L 261.839108 10.995738 
L 245.179108 10.995738 
z
" style="fill: #1f77b4; stroke: #303030; stroke-linejoin: miter"/>
    </g>
    <g id="text_16">
     <!-- ret(c) close -->
     <g style="fill: #d0d0d0" transform="translate(268.503108 16.826738) scale(0.0833 -0.0833)">
      <defs>
       <path id="DejaVuSans-28" d="M 1984 4856 
Q 1566 4138 1362 3434 
Q 1159 2731 1159 2009 
Q 1159 1288 1364 580 
Q 1569 -128 1984 -844 
L 1484 -844 
Q 1016 -109 783 600 
Q 550 1309 550 2009 
Q 550 2706 781 3412 
Q 1013 4119 1484 4856 
L 1984 4856 
z
" transform="scale(0.015625)"/>
       <path id="DejaVuSans-63" d="M 3122 3366 
L 3122 2828 
Q 2878 2963 2633 3030 
Q 2388 3097 2138 3097 
Q 1578 3097 1268 2742 
Q 959 2388 959 1747 
Q 959 1106 1268 751 
Q 1578 397 2138 397 
Q 2388 397 2633 464 
Q 2878 531 3122 666 
L 3122 134 
Q 2881 22 2623 -34 
Q 2366 -91 2075 -91 
Q 1284 -91 818 406 
Q 353 903 353 1747 
Q 353 2603 823 3093 
Q 1294 3584 2113 3584 
Q 2378 3584 2631 3529 
Q 2884 3475 3122 3366 
z
" transform="scale(0.015625)"/>
       <path id="DejaVuSans-29" d="M 513 4856 
L 1013 4856 
Q 1481 4119 1714 3412 
Q 1947 2706 1947 2009 
Q 1947 1309 1714 600 
Q 1481 -109 1013 -844 
L 513 -844 
Q 928 -128 1133 580 
Q 1338 1288 1338 2009 
Q 1338 2731 1133 3434 
Q 928 4138 513 4856 
z
" transform="scale(0.015625)"/>
      </defs>
      <use xlink:href="#DejaVuSans-72"/>
      <use xlink:href="#DejaVuSans-65" x="38.863281"/>
      <use xlink:href="#DejaVuSans-74" x="100.386719"/>
      <use xlink:href="#DejaVuSans-28" x="139.595703"/>
      <use xlink:href="#DejaVuSans-63" x="178.609375"/>
      <use xlink:href="#DejaVuSans-29" x="233.589844"/>
      <use xlink:href="#DejaVuSans-20" x="272.603516"/>
      <use xlink:href="#DejaVuSans-63" x="304.390625"/>
      <use xlink:href="#DejaVuSans-6c" x="359.371094"/>
      <use xlink:href="#DejaVuSans-6f" x="387.154297"/>
      <use xlink:href="#DejaVuSans-73" x="448.335938"/>
      <use xlink:href="#DejaVuSans-65" x="500.435547"/>
     </g>
    </g>
    <g id="line2d_16">
     <path d="M 245.179108 26.138117 
L 253.509108 26.138117 
L 261.839108 26.138117 
" style="fill: none; stroke: #32cd32; stroke-width: 1.5; stroke-linecap: square"/>
    </g>
    <g id="text_17">
     <!-- ret(c) close KDE -->
     <g style="fill: #d0d0d0" transform="translate(268.503108 29.053617) scale(0.0833 -0.0833)">
      <defs>
       <path id="DejaVuSans-4b" d="M 628 4666 
L 1259 4666 
L 1259 2694 
L 3353 4666 
L 4166 4666 
L 1850 2491 
L 4331 0 
L 3500 0 
L 1259 2247 
L 1259 0 
L 628 0 
L 628 4666 
z
" transform="scale(0.015625)"/>
       <path id="DejaVuSans-44" d="M 1259 4147 
L 1259 519 
L 2022 519 
Q 2988 519 3436 956 
Q 3884 1394 3884 2338 
Q 3884 3275 3436 3711 
Q 2988 4147 2022 4147 
L 1259 4147 
z
M 628 4666 
L 1925 4666 
Q 3281 4666 3915 4102 
Q 4550 3538 4550 2338 
Q 4550 1131 3912 565 
Q 3275 0 1925 0 
L 628 0 
L 628 4666 
z
" transform="scale(0.015625)"/>
       <path id="DejaVuSans-45" d="M 628 4666 
L 3578 4666 
L 3578 4134 
L 1259 4134 
L 1259 2753 
L 3481 2753 
L 3481 2222 
L 1259 2222 
L 1259 531 
L 3634 531 
L 3634 0 
L 628 0 
L 628 4666 
z
" transform="scale(0.015625)"/>
      </defs>
      <use xlink:href="#DejaVuSans-72"/>
      <use xlink:href="#DejaVuSans-65" x="38.863281"/>
      <use xlink:href="#DejaVuSans-74" x="100.386719"/>
      <use xlink:href="#DejaVuSans-28" x="139.595703"/>
      <use xlink:href="#DejaVuSans-63" x="178.609375"/>
      <use xlink:href="#DejaVuSans-29" x="233.589844"/>
      <use xlink:href="#DejaVuSans-20" x="272.603516"/>
      <use xlink:href="#DejaVuSans-63" x="304.390625"/>
      <use xlink:href="#DejaVuSans-6c" x="359.371094"/>
      <use xlink:href="#DejaVuSans-6f" x="387.154297"/>
      <use xlink:href="#DejaVuSans-73" x="448.335938"/>
      <use xlink:href="#DejaVuSans-65" x="500.435547"/>
      <use xlink:href="#DejaVuSans-20" x="561.958984"/>
      <use xlink:href="#DejaVuSans-4b" x="593.746094"/>
      <use xlink:href="#DejaVuSans-44" x="659.322266"/>
      <use xlink:href="#DejaVuSans-45" x="736.324219"/>
     </g>
    </g>
   </g>
  </g>
 </g>
 <defs>
  <clipPath id="pd54fa0ba5d">
   <rect x="32.662043" y="3.00024" width="309.937717" height="238.137642"/>
  </clipPath>
 </defs>
</svg>
